<?xml version="1.0" standalone="no"?>
<!DOCTYPE svg PUBLIC "-//W3C//DTD SVG 1.1//EN" "http://www.w3.org/Graphics/SVG/1.1/DTD/svg11.dtd" >
<svg xmlns="http://www.w3.org/2000/svg" xmlns:xlink="http://www.w3.org/1999/xlink" version="1.1">
<metadata></metadata>
<defs>
<font id="rokkittregular" horiz-adv-x="933" >
<font-face units-per-em="2048" ascent="1638" descent="-410" />
<missing-glyph horiz-adv-x="624" />
<glyph unicode="&#xfb01;" horiz-adv-x="1155" d="M84 696v109h143v110q0 174 111 262.5t289 88.5q147 0 251.5 -55.5t104.5 -143.5q0 -43 -24.5 -67.5t-69.5 -24.5t-71.5 24.5t-26.5 63.5q0 14 6 29.5t16 23.5q-25 29 -78 45.5t-108 16.5q-117 0 -182.5 -63.5t-65.5 -201.5v-108h586v-696h139v-109h-436v109h147v587h-436 v-587h178v-109h-469v109h139v587h-143z" />
<glyph horiz-adv-x="0" />
<glyph unicode="&#xd;" horiz-adv-x="624" />
<glyph horiz-adv-x="0" />
<glyph horiz-adv-x="0" />
<glyph unicode=" "  horiz-adv-x="624" />
<glyph unicode="&#x09;" horiz-adv-x="624" />
<glyph unicode="&#xa0;" horiz-adv-x="624" />
<glyph unicode="!" horiz-adv-x="362" d="M61 90q0 45 31 75t78 30t79 -30t32 -75q0 -43 -32 -72.5t-79 -29.5q-45 0 -77 29.5t-32 72.5zM92 854v348h158v-348l-29 -541h-100z" />
<glyph unicode="&#x22;" horiz-adv-x="632" d="M111 1290h165l-32 -430h-92zM357 1290h165l-32 -430h-92z" />
<glyph unicode="#" horiz-adv-x="1132" d="M72 352v103h186l41 311h-207v104h227l48 340h120l-47 -340h330l47 340h123l-49 -340h174v-104h-193l-41 -311h213v-103h-233l-47 -360h-123l49 360h-332l-49 -360h-119l48 360h-166zM379 455h330l41 311h-330z" />
<glyph unicode="$" horiz-adv-x="1067" d="M96 860q0 147 97.5 230.5t261.5 85.5v178h123v-193q115 -33 176 -108v100h131v-326h-121q-27 172 -186 217v-387q193 -39 277.5 -113.5t84.5 -226.5q0 -90 -43 -166.5t-125 -123.5t-194 -47v-162h-123v176q-141 37 -219 147v-141h-134v389h123q10 -100 70.5 -175 t159.5 -101v413q-170 29 -264.5 112t-94.5 222zM246 877q0 -80 51 -126t158 -71v377q-98 -2 -153.5 -52.5t-55.5 -127.5zM578 98q100 4 156.5 54.5t56.5 140.5q0 98 -46.5 142t-166.5 69v-406z" />
<glyph unicode="%" horiz-adv-x="1462" d="M82 889q0 125 80 206t200 81q123 0 204 -81t81 -206q0 -127 -81 -210t-204 -83q-120 0 -200 84t-80 209zM188 889q0 -86 50.5 -143.5t123.5 -59.5q78 2 127.5 58.5t49.5 144.5q0 86 -49.5 141t-127.5 57q-74 -2 -124 -57t-50 -141zM299 -2l764 1163h104l-761 -1163h-107z M817 270q0 125 80 206t201 81t201.5 -81t80.5 -206t-80.5 -209t-201.5 -84t-201 83t-80 210zM924 270q0 -86 50 -143t124 -57q78 0 127 56t49 144q0 86 -50 142.5t-126 56.5q-74 0 -124 -56.5t-50 -142.5z" />
<glyph unicode="&#x26;" horiz-adv-x="1280" d="M102 338q0 240 301 350q-66 80 -98.5 146.5t-32.5 130.5q0 111 85 180t221 69q127 0 207.5 -67.5t80.5 -171.5q0 -207 -266 -324l279 -332q37 51 64.5 126t39.5 149h236v-115h-138q-18 -70 -52 -140.5t-73 -117.5l84 -106h179v-115h-263l-92 119q-150 -139 -354 -139 q-121 0 -213 45t-143.5 126.5t-51.5 186.5zM256 344q0 -104 77 -171t199 -67q154 0 256 109l-315 385q-217 -76 -217 -256zM412 971q0 -45 29.5 -97.5t90.5 -132.5q205 93 205 226q0 66 -44 103.5t-118 37.5t-118.5 -37t-44.5 -100z" />
<glyph unicode="'" horiz-adv-x="387" d="M111 1290h165l-32 -430h-92z" />
<glyph unicode="(" horiz-adv-x="567" d="M94 524q0 213 106.5 392.5t301.5 257.5l2 -99q-109 -55 -168.5 -207.5t-59.5 -339.5q0 -188 59.5 -341.5t168.5 -209.5l-2 -98q-197 76 -302.5 255t-105.5 390z" />
<glyph unicode=")" horiz-adv-x="567" d="M113 -23q109 55 168 210t59 341t-59.5 339t-167.5 208v99q197 -76 303 -256.5t106 -393.5q0 -211 -106.5 -390t-302.5 -255v98z" />
<glyph unicode="*" d="M51 864l39 123l354 -166l-43 385h131l-43 -385l355 166l39 -123l-375 -88l258 -287l-107 -77l-192 336l-193 -336l-106 77l258 287z" />
<glyph unicode="+" horiz-adv-x="1171" d="M143 518v109h381v395h123v-395h381v-109h-381v-395h-123v395h-381z" />
<glyph unicode="," horiz-adv-x="493" d="M123 -160q63 10 86.5 44t23.5 116h-104v195h201v-164q0 -133 -49.5 -201t-157.5 -68v78z" />
<glyph unicode="-" horiz-adv-x="710" d="M111 422v115h489v-115h-489z" />
<glyph unicode="." horiz-adv-x="479" d="M123 0v193h192v-193h-192z" />
<glyph unicode="/" horiz-adv-x="661" d="M20 -287l574 1501h129l-573 -1501h-130z" />
<glyph unicode="0" horiz-adv-x="1097" d="M123 582q0 281 108.5 436.5t317.5 155.5t317.5 -156t108.5 -436q0 -295 -107.5 -450t-318.5 -155t-318.5 155t-107.5 450zM274 582q0 -242 71 -369t204 -127t203.5 127t70.5 369q0 236 -70.5 359.5t-203.5 123.5t-204 -124t-71 -359z" />
<glyph unicode="1" horiz-adv-x="638" d="M90 1100l326 53v-1044h162v-109h-482v109h172v911l-174 -29z" />
<glyph unicode="2" horiz-adv-x="935" d="M82 0v102l332 336q106 109 159.5 171.5t80 122t26.5 130.5q0 88 -52.5 145.5t-156.5 57.5q-106 0 -166.5 -59.5t-60.5 -169.5q0 -51 16 -127h-139q-18 66 -19 129q0 154 105.5 245t284.5 91q158 0 248.5 -82t90.5 -213q0 -84 -36.5 -159t-100 -147.5t-188.5 -197.5 l-258 -260h457v219h135l2 -334h-760z" />
<glyph unicode="3" horiz-adv-x="978" d="M61 219l121 68q106 -188 312 -189q119 0 185 56.5t66 154.5q0 121 -88 178.5t-274 57.5v117q346 0 346 212q0 82 -60.5 131.5t-170.5 49.5q-106 0 -182 -52.5t-109 -146.5l-123 57q51 123 159.5 192t256.5 69q170 0 271 -80t101 -213q0 -98 -62 -172t-163 -101 q113 -22 181.5 -102t68.5 -197q0 -154 -109.5 -241.5t-300.5 -87.5q-147 0 -253.5 62t-172.5 177z" />
<glyph unicode="4" horiz-adv-x="927" d="M0 406l545 747h141v-741h180v-109h-180v-194h139v-109h-458v109h180v194h-533zM137 412h410v559z" />
<glyph unicode="5" horiz-adv-x="1005" d="M82 170l96 98q139 -164 322 -164q129 0 201.5 68t72.5 180q0 115 -68.5 182.5t-189.5 67.5q-76 0 -142.5 -28.5t-117.5 -79.5l-121 49l15 610h708v-295h-143v174h-436l-13 -389q55 43 128 66.5t149 23.5q182 0 282.5 -103.5t100.5 -273.5q0 -176 -115 -277.5t-309 -101.5 q-248 0 -420 193z" />
<glyph unicode="6" horiz-adv-x="942" d="M78 365q0 84 17.5 151.5t59.5 145t128 208.5l252 381l120 -82l-333 -491q86 53 202 53q94 0 174 -46t127 -129t47 -189q0 -111 -50 -199t-140 -138t-201 -50q-117 0 -208 48t-143 136t-52 201zM229 356q0 -113 65.5 -186.5t186.5 -73.5q115 0 182.5 74t67.5 192 q0 117 -64.5 186.5t-174.5 69.5q-111 0 -187 -70.5t-76 -191.5z" />
<glyph unicode="7" horiz-adv-x="888" d="M25 842v311h782v-104l-397 -1049h-148l387 1038h-477v-196h-147z" />
<glyph unicode="8" horiz-adv-x="950" d="M61 307q0 104 59.5 181t168.5 114q-100 43 -145.5 109.5t-45.5 160.5q0 135 102.5 218.5t274.5 83.5q174 0 276.5 -82t102.5 -220q0 -201 -195 -272q113 -31 171.5 -106.5t58.5 -184.5q0 -147 -109.5 -239.5t-302.5 -92.5q-198 0 -307 92.5t-109 237.5zM225 315 q0 -100 67.5 -160.5t184.5 -60.5q113 0 180.5 59.5t67.5 159.5q0 111 -82 163t-260 81q-35 -8 -72 -42t-61.5 -86t-24.5 -114zM254 860q0 -98 78 -149.5t229 -69.5q45 16 91 75.5t46 143.5q0 90 -58 144.5t-165 54.5q-104 0 -162.5 -53.5t-58.5 -145.5z" />
<glyph unicode="9" horiz-adv-x="942" d="M70 788q0 111 50 199t140 138.5t201 50.5q117 0 208 -48.5t143 -136.5t52 -200q0 -84 -17.5 -152t-59.5 -145.5t-128 -208.5l-251 -381l-121 82l334 491q-86 -53 -203 -53q-94 0 -174 46t-127 129t-47 189zM211 793q0 -117 64.5 -186.5t175.5 -69.5q110 0 186 70.5 t76 191.5q0 113 -65.5 186.5t-186.5 73.5q-115 0 -182.5 -74t-67.5 -192z" />
<glyph unicode=":" horiz-adv-x="479" d="M123 0v193h192v-193h-192zM123 612v193h192v-193h-192z" />
<glyph unicode=";" horiz-adv-x="493" d="M123 -160q63 10 86.5 44t23.5 116h-104v195h201v-164q0 -133 -49.5 -201t-157.5 -68v78zM123 612v193h192v-193h-192z" />
<glyph unicode="&#x3c;" horiz-adv-x="1050" d="M143 528v103l805 389v-123l-676 -317l676 -318v-123z" />
<glyph unicode="=" horiz-adv-x="1128" d="M143 358v109h842v-109h-842zM143 698v109h842v-109h-842z" />
<glyph unicode="&#x3e;" horiz-adv-x="1050" d="M102 139v123l676 318l-676 317v123l805 -389v-103z" />
<glyph unicode="?" horiz-adv-x="784" d="M45 907q8 145 107.5 226t240.5 81q156 0 250 -79.5t94 -206.5q0 -84 -42 -148.5t-140 -167.5q-76 -78 -99.5 -132t-23.5 -156v-13h-158v13q0 74 18.5 128t49.5 97t94 113q68 76 95.5 133t27.5 129q0 82 -45 126t-119 44q-82 0 -128 -48.5t-50 -138.5h-172zM242 90 q0 45 31.5 75t78.5 30t80 -30t33 -75t-33 -74.5t-80 -29.5t-78.5 29.5t-31.5 74.5z" />
<glyph unicode="@" horiz-adv-x="1449" d="M109 555q0 166 78.5 316.5t231 244.5t357.5 94q190 0 315.5 -72.5t183.5 -190.5t58 -253q0 -115 -47 -223.5t-121.5 -176t-152.5 -67.5q-123 0 -123 119q0 25 6 55q-33 -80 -92.5 -128t-145.5 -48q-70 0 -130 36t-97 104.5t-37 162.5q0 102 41 197.5t121 156t190 60.5 q84 0 140.5 -50t60.5 -124l31 158h104l-98 -453q-12 -63 -12 -104q0 -59 26 -66q16 -4 25 -4q47 0 100.5 53.5t89 144.5t35.5 195q0 113 -55 211t-162.5 156.5t-259.5 58.5q-158 0 -283 -72.5t-196.5 -201.5t-71.5 -291q0 -156 66.5 -272.5t193.5 -180t305 -63.5 q225 0 369 106l55 -67q-84 -63 -187 -96t-237 -33q-221 0 -372.5 85t-227 223t-75.5 300zM504 526q0 -94 44 -153.5t128 -59.5q65 0 118.5 45t84 125t30.5 181q0 88 -47 137t-127 49q-70 0 -122 -47t-80.5 -122t-28.5 -155z" />
<glyph unicode="A" horiz-adv-x="1382" d="M57 0v109h148l334 935h-129v109h563v-109h-133l344 -935h139v-109h-469v109h154l-117 335h-418l-115 -335h154v-109h-455zM506 553h352l-168 489h-12z" />
<glyph unicode="B" horiz-adv-x="1187" d="M80 0v109h160v935h-160v109h571q193 0 294.5 -72.5t101.5 -214.5q0 -94 -47.5 -159.5t-127.5 -92.5q115 -29 175.5 -105.5t60.5 -182.5q0 -139 -100.5 -232.5t-313.5 -93.5h-614zM408 109h258q272 0 272 223q0 100 -69.5 158.5t-209.5 58.5h-251v-440zM408 662h233 q240 0 240 198q0 100 -64.5 142t-212.5 42h-196v-382z" />
<glyph unicode="C" horiz-adv-x="1361" d="M100 578q0 172 75 307t213 212t319 77q129 0 231 -48.5t160 -132.5v160h123v-348l-111 -4q-63 131 -159.5 190.5t-235.5 59.5q-133 0 -234.5 -62.5t-157 -169t-55.5 -239.5q0 -143 57.5 -252t160 -168.5t229.5 -59.5q139 0 248.5 65.5t158.5 207.5l123 -62 q-129 -330 -540 -334q-178 0 -315.5 77t-213.5 212t-76 312z" />
<glyph unicode="D" horiz-adv-x="1400" d="M82 0v109h160v935h-160v109h627q190 0 324 -80t200.5 -210t66.5 -275q0 -172 -66.5 -305t-198.5 -208t-324 -75h-629zM410 109h284q219 0 326.5 131t107.5 344q0 123 -47 227t-143 168.5t-238 64.5h-290v-935z" />
<glyph unicode="E" horiz-adv-x="1191" d="M80 0v109h160v935h-160v109h1003v-342h-129v233h-546v-391h358v135h84v-385h-84v138h-358v-432h557v239h129v-348h-1014z" />
<glyph unicode="F" horiz-adv-x="1110" d="M80 0v109h160v935h-160v109h985v-350h-129v241h-528v-387h348v125h86v-374h-86v133h-348v-432h159v-109h-487z" />
<glyph unicode="G" horiz-adv-x="1400" d="M98 580q0 176 80 311t222.5 209t324.5 74q129 0 229.5 -43.5t165.5 -122.5v145h133v-356h-118q-55 123 -160 189.5t-244 66.5q-209 0 -330.5 -125t-121.5 -338q0 -225 122.5 -356.5t333.5 -131.5q180 4 293 94.5t117 270.5h-244v115h408v-62q0 -250 -151.5 -395 t-428.5 -145q-197 0 -339 75.5t-217 211.5t-75 313z" />
<glyph unicode="H" horiz-adv-x="1427" d="M80 0v109h160v935h-160v109h487v-109h-159v-393h614v393h-162v109h488v-109h-160v-935h160v-109h-488v109h162v426h-614v-426h159v-109h-487z" />
<glyph unicode="I" horiz-adv-x="694" d="M102 0v109h160v935h-160v109h490v-109h-162v-935h162v-109h-490z" />
<glyph unicode="J" horiz-adv-x="667" d="M68 -86h122q70 0 93.5 41t23.5 127v962h-157v109h473v-109h-150v-960q0 -156 -59.5 -228.5t-196.5 -72.5h-149v131z" />
<glyph unicode="K" horiz-adv-x="1296" d="M80 0v109h160v935h-160v109h487v-109h-159v-440l475 440h-131v109h477v-109h-152l-499 -462l507 -473h154v-109h-494v109h136l-473 438v-438h159v-109h-487z" />
<glyph unicode="L" horiz-adv-x="1075" d="M80 0v109h160v935h-160v109h487v-109h-159v-935h479v354h135v-463h-942z" />
<glyph unicode="M" horiz-adv-x="1687" d="M82 0v109h156v935h-156v109h391l377 -809l358 809h398v-109h-156v-935h156v-109h-465v109h149v907l-434 -957h-53l-441 957v-907h150v-109h-430z" />
<glyph unicode="N" horiz-adv-x="1441" d="M84 0v109h164v935h-164v109h356l660 -932v823h-164v109h453v-109h-160v-1044h-166l-688 981v-872h164v-109h-455z" />
<glyph unicode="O" horiz-adv-x="1452" d="M100 573q0 162 78 300.5t220.5 219.5t326.5 81t326.5 -81t220.5 -219.5t78 -300.5t-78 -298t-220.5 -217t-326.5 -81t-326.5 81t-220.5 217.5t-78 297.5zM281 571q0 -133 53 -239.5t153.5 -169t237.5 -62.5t237.5 63.5t154.5 171t54 238.5q0 133 -54 242t-154.5 173.5 t-237.5 64.5t-237.5 -64.5t-153.5 -174t-53 -243.5z" />
<glyph unicode="P" horiz-adv-x="1153" d="M80 0v109h160v935h-160v109h569q211 0 321.5 -84t110.5 -244q0 -170 -113.5 -259t-328.5 -89h-154v109h148q133 0 204.5 61.5t71.5 175.5q0 106 -62.5 163.5t-178.5 57.5h-260v-935h159v-109h-487z" />
<glyph unicode="Q" horiz-adv-x="1445" d="M100 573q0 162 78 300.5t220.5 219.5t326.5 81t326.5 -81t220.5 -219.5t78 -300.5q0 -150 -65.5 -276.5t-186.5 -210.5t-283 -102q61 -74 119.5 -111t140.5 -37q47 0 117 17l2 -109q-61 -18 -119 -18q-235 0 -405 256q-170 10 -300 93t-200 214t-70 284zM281 571 q0 -133 53 -239.5t153.5 -169t237.5 -62.5t237.5 63.5t154.5 171t54 238.5q0 133 -54 242t-154.5 173.5t-237.5 64.5t-237.5 -64.5t-153.5 -174t-53 -243.5z" />
<glyph unicode="R" horiz-adv-x="1267" d="M80 0v109h160v935h-160v109h606q184 0 287.5 -77t103.5 -224q0 -262 -297 -307l264 -436h170v-109h-284l-309 528h-142v113h180q137 0 194.5 60.5t57.5 148.5q0 86 -56 140t-167 54h-280v-935h159v-109h-487z" />
<glyph unicode="S" horiz-adv-x="1069" d="M139 860q0 150 98.5 233t264.5 83q94 0 171 -32t124 -91v100h131v-326h-121q-39 229 -297 230q-104 0 -162.5 -49.5t-58.5 -130.5q0 -86 61.5 -134.5t186.5 -70.5l47 -8q213 -37 306 -112t93 -235q0 -92 -43 -168.5t-127 -122.5t-199 -46q-106 0 -193 43t-142 118v-141 h-134v389h123q12 -129 103.5 -210t236.5 -81q106 0 166 51.5t60 143.5q0 74 -27 116t-85 65.5t-167 41.5l-49 8q-174 29 -270.5 112t-96.5 224z" />
<glyph unicode="T" horiz-adv-x="1144" d="M51 752v401h1041v-401h-125v292h-310v-935h160v-109h-485v109h160v935h-316v-292h-125z" />
<glyph unicode="U" horiz-adv-x="1372" d="M55 1044v109h473v-109h-153v-649q0 -137 85 -215t234 -78q162 0 251 78t89 217v647h-151v109h448v-109h-155v-641q0 -207 -132.5 -315t-353.5 -108q-246 0 -363.5 118.5t-117.5 319.5v626h-154z" />
<glyph unicode="V" horiz-adv-x="1323" d="M33 1044v109h469v-109h-152l326 -862l321 862h-147v109h438v-109h-141l-410 -1044h-145l-414 1044h-145z" />
<glyph unicode="W" horiz-adv-x="1888" d="M49 1044v109h451v-109h-150l250 -831l297 920h121l299 -920l244 831h-150v109h430v-109h-143l-318 -1044h-143l-289 872l-286 -872h-144l-328 1044h-141z" />
<glyph unicode="X" horiz-adv-x="1304" d="M61 0v102h160l338 488l-326 459h-157v104h473v-104h-139l252 -365l247 365h-141v104h449v-104h-158l-324 -457l346 -490h162v-102h-483v102h143l-266 396l-264 -396h145v-102h-457z" />
<glyph unicode="Y" horiz-adv-x="1294" d="M29 1044v109h479v-109h-146l304 -442l292 442h-147v109h455v-109h-158l-375 -548v-387h170v-109h-504v109h168v385l-385 550h-153z" />
<glyph unicode="Z" horiz-adv-x="1179" d="M127 0v117l727 927h-573v-272h-123v381h899v-104l-733 -940h624v290h123v-399h-944z" />
<glyph unicode="[" horiz-adv-x="577" d="M170 -174v1417h334v-115h-170v-1187h170v-115h-334z" />
<glyph unicode="\" horiz-adv-x="645" d="M49 1214h125l471 -1501h-125z" />
<glyph unicode="]" horiz-adv-x="575" d="M72 -59h170v1187h-170v115h334v-1417h-334v115z" />
<glyph unicode="^" horiz-adv-x="925" d="M76 659l319 590h140l315 -590h-139l-244 467l-252 -467h-139z" />
<glyph unicode="_" horiz-adv-x="882" d="M12 -78h858v-84h-858v84z" />
<glyph unicode="`" horiz-adv-x="690" d="M205 1274h172l108 -297h-96z" />
<glyph unicode="a" d="M80 217q0 131 89 191.5t234 60.5q104 0 224 -27v84q0 92 -50.5 139.5t-140.5 47.5q-59 0 -136 -19.5t-140 -54.5l-45 98q68 43 156.5 65.5t166.5 22.5q158 0 248 -76.5t90 -207.5v-432h127v-109h-260l-8 72q-66 -49 -131.5 -72t-147.5 -23q-123 0 -199.5 69t-76.5 171z M223 225q0 -63 42 -103t114 -40q121 0 248 88v184q-109 25 -213 25q-82 0 -136.5 -36t-54.5 -118z" />
<glyph unicode="b" horiz-adv-x="1069" d="M51 0v109h150v958h-146v107h297v-441q61 45 133 68.5t142 23.5q110 0 199 -48t140.5 -141t51.5 -222q0 -133 -56.5 -231.5t-152.5 -150.5t-209 -52q-147 0 -248 88v-68h-301zM352 174q49 -39 107.5 -60.5t113.5 -21.5q127 0 207 81t80 228q0 143 -76.5 225.5t-197.5 82.5 q-57 0 -118.5 -22.5t-115.5 -65.5v-447z" />
<glyph unicode="c" horiz-adv-x="960" d="M53 408q0 123 54.5 218t150.5 148t217 53q90 0 160 -32.5t106 -87.5v102h127v-289h-114q-18 88 -84 138.5t-160 50.5q-131 0 -215 -84t-84 -213q0 -139 82 -226.5t213 -87.5q98 0 165.5 38t131.5 110l63 -92q-63 -82 -157.5 -128t-216.5 -46q-127 0 -226.5 55t-156 152.5 t-56.5 220.5z" />
<glyph unicode="d" horiz-adv-x="1050" d="M57 403q0 131 53.5 227.5t143.5 145.5t199 49q70 0 141.5 -21.5t130.5 -62.5v326h-143v107h295v-1065h127v-109h-279v57q-113 -80 -256 -80q-113 0 -207 51.5t-149.5 148.5t-55.5 226zM215 391q0 -139 81 -219t206 -80q117 0 223 74v467q-57 37 -120.5 57.5t-121.5 20.5 q-121 0 -194.5 -84t-73.5 -236z" />
<glyph unicode="e" horiz-adv-x="944" d="M51 401q0 127 56.5 224.5t153.5 149.5t216 52q184 0 289.5 -112.5t105.5 -304.5v-39h-663q14 -129 92 -204t199 -75q168 0 305 129l53 -92q-59 -70 -149.5 -112t-202.5 -42q-127 0 -231.5 53.5t-164 150.5t-59.5 222zM209 465h514q0 117 -68.5 184.5t-177.5 67.5 q-106 0 -180 -67.5t-88 -184.5z" />
<glyph unicode="f" horiz-adv-x="647" d="M84 0v109h160v587h-158v109h158v172q0 115 60.5 179.5t180.5 64.5q92 0 154.5 -45.5t69.5 -143.5l-117 -33q-10 57 -31.5 86t-68.5 29q-96 0 -97 -139v-170h246v-109h-246v-587h207v-109h-518z" />
<glyph unicode="g" horiz-adv-x="1050" d="M63 410q0 131 53.5 224t146.5 141t208 48q70 0 143.5 -23.5t126.5 -66.5v72h289v-109h-135v-714q0 -186 -112.5 -276.5t-301.5 -90.5q-143 0 -303 49l31 119q156 -47 268 -47q127 0 196.5 58.5t69.5 176.5v111q-57 -43 -127.5 -65.5t-140.5 -22.5q-115 0 -209 50 t-148.5 144.5t-54.5 221.5zM221 399q0 -137 80 -215t205 -78q59 0 121.5 20.5t115.5 59.5l-2 443q-59 39 -125.5 61.5t-126.5 22.5q-121 0 -194.5 -83t-73.5 -231z" />
<glyph unicode="h" horiz-adv-x="1067" d="M25 0v109h149v958h-147v107h299v-459q165 110 301 110h2q115 0 190.5 -70.5t75.5 -197.5v-448h147v-109h-432v109h133v419q0 84 -39.5 131.5t-111.5 47.5q-123 0 -266 -95v-503h131v-109h-432z" />
<glyph unicode="i" horiz-adv-x="546" d="M45 0v109h156v587h-154v109h303v-696h146v-109h-451zM145 1085q0 45 32 75t79 30t79 -30t32 -75t-32 -74.5t-79 -29.5t-79 29.5t-32 74.5z" />
<glyph unicode="j" horiz-adv-x="509" d="M10 -193h86q80 0 106.5 37t26.5 127v725h-163v109h317v-797q0 -106 -18.5 -172.5t-81 -106.5t-185.5 -40h-88v118zM164 1087q0 43 31.5 73t78.5 30t79 -30t32 -73q0 -45 -31.5 -75.5t-79.5 -30.5q-47 0 -78.5 30.5t-31.5 75.5z" />
<glyph unicode="k" horiz-adv-x="1019" d="M53 0v109h152v958h-148v107h299v-744l349 266h-150v109h428v-109h-123l-348 -276l315 -311h160v-109h-235l-396 395v-286h131v-109h-434z" />
<glyph unicode="l" horiz-adv-x="532" d="M55 0v109h150v958h-146v107h297v-1065h131v-109h-432z" />
<glyph unicode="m" horiz-adv-x="1611" d="M45 0v109h156v587h-156v109h305v-78q156 98 287 98q80 0 139.5 -33.5t89.5 -93.5q90 61 168 94t162 33q115 0 189.5 -70.5t74.5 -197.5v-448h148v-109h-432v109h135v419q0 84 -41 131.5t-113 47.5q-125 0 -262 -93q6 -31 6 -61v-444h148v-109h-433v109h136v419 q0 84 -41 131.5t-113 47.5q-104 0 -248 -82v-516h146v-109h-451z" />
<glyph unicode="n" horiz-adv-x="1058" d="M45 0v109h156v587h-156v109h305v-80q160 100 291 100q115 0 189.5 -70.5t74.5 -197.5v-448h150v-109h-432v109h133v419q0 84 -41 131.5t-113 47.5q-59 0 -119.5 -21.5t-132.5 -64.5v-512h146v-109h-451z" />
<glyph unicode="o" horiz-adv-x="974" d="M51 403q0 127 54.5 223.5t152.5 148.5t227 52t228.5 -52t155 -148.5t55.5 -220.5q0 -127 -55.5 -225.5t-155 -152t-228.5 -53.5t-227 53.5t-152.5 150.5t-54.5 224zM207 403q0 -139 76.5 -224t201.5 -85q127 0 205 85t78 227q0 137 -78 220t-205 83t-202.5 -84 t-75.5 -222z" />
<glyph unicode="p" horiz-adv-x="1048" d="M39 -211h145v907h-141v109h283l2 -76q59 47 129.5 71.5t144.5 24.5q111 0 200 -48t140 -141t51 -222q0 -133 -56 -231.5t-151.5 -150.5t-207.5 -52q-72 0 -136.5 22.5t-105.5 58.5l-2 -272h158v-108h-453v108zM334 627l2 -457q47 -37 103.5 -57.5t111.5 -20.5 q127 0 206 81t79 228q0 143 -77 225.5t-198 82.5q-49 0 -113.5 -20.5t-113.5 -61.5z" />
<glyph unicode="q" horiz-adv-x="1085" d="M57 403q0 131 53.5 227.5t143.5 145.5t199 49q78 0 155.5 -26.5t139.5 -73.5l2 80h290v-109h-141v-911h143v-115h-452v115h158v291q-61 -47 -134 -73t-145 -26q-113 0 -207 51.5t-149.5 148.5t-55.5 226zM213 391q0 -139 81 -219t206 -80q61 0 125.5 23.5t122.5 64.5v438 q-63 45 -132 69t-135 24q-119 0 -193.5 -84t-74.5 -236z" />
<glyph unicode="r" horiz-adv-x="790" d="M72 0v109h155v587h-155v109h305v-148q66 158 207 158q78 0 164 -41l-37 -137q-70 45 -142 45q-82 0 -136 -66.5t-54 -183.5l-2 -323h143v-109h-448z" />
<glyph unicode="s" horiz-adv-x="884" d="M121 600q0 104 83 164.5t214 60.5q63 0 129.5 -20.5t105.5 -56.5v61h121v-277h-106l-15 101q-31 37 -91 60.5t-120 23.5q-72 0 -121 -29t-49 -84q0 -45 35 -69.5t119 -45.5l104 -22q95 -23 151 -48.5t91 -74.5t35 -131q0 -115 -90 -174t-217 -59q-78 0 -147.5 24.5 t-110.5 65.5v-70h-119v279h106l9 -89q35 -51 101.5 -78.5t139.5 -27.5q80 0 131.5 31.5t51.5 85.5q0 61 -39 87.5t-146 49.5l-112 24q-125 31 -184.5 81.5t-59.5 156.5zM213 242q0 -4 2 -6zM674 596l2 -4z" />
<glyph unicode="t" horiz-adv-x="616" d="M41 696v109h133v274l152 60v-334h213v-109h-213v-450q0 -76 24.5 -106.5t83.5 -30.5h123v-109h-149q-234 0 -234 238v458h-133z" />
<glyph unicode="u" horiz-adv-x="1044" d="M23 696v109h286v-539q0 -78 38 -122t114 -44q139 0 262 113v483h-145v109h294v-696h150v-109h-295l-4 98q-146 -118 -295 -118h-2q-135 0 -201.5 75.5t-66.5 194.5v446h-135z" />
<glyph unicode="v" horiz-adv-x="1052" d="M14 696v109h430v-109h-131l226 -540l223 540h-129v109h405v-109h-129l-313 -696h-137l-307 696h-138z" />
<glyph unicode="w" horiz-adv-x="1464" d="M18 696v109h365v-109h-111l191 -546l190 546h-114v109h395v-109h-117l199 -549l176 549h-113v109h363v-109h-113l-242 -696h-147l-207 571l-207 -571h-147l-254 696h-107z" />
<glyph unicode="x" horiz-adv-x="1032" d="M49 0v109h121l268 303l-254 284h-131v109h406v-109h-121l184 -213l185 213h-121v109h403v-109h-143l-248 -278l274 -309h121v-109h-411v109h137l-207 229l-199 -229h125v-109h-389z" />
<glyph unicode="y" horiz-adv-x="1062" d="M16 696v109h422v-109h-119l242 -546l215 546h-139v109h420v-109h-131l-299 -743q-45 -117 -75 -169t-85 -81t-156 -29h-104v123h92q57 0 88 8.5t54.5 37t43.5 89.5l43 119h-63l-299 645h-150z" />
<glyph unicode="z" horiz-adv-x="897" d="M104 0v106l519 594h-394v-165h-114v270h684v-113l-518 -590h411v185h119v-287h-707z" />
<glyph unicode="{" horiz-adv-x="579" d="M63 512v115q68 0 102 28.5t44 83t10 150.5q0 145 11.5 220t61.5 119t161 44h75v-105q-80 0 -115.5 -12t-49 -48t-13.5 -116q0 -158 -9 -235.5t-38 -119.5t-92 -67q57 -25 86 -63.5t40 -110t11 -202.5q0 -109 10.5 -151t45 -57.5t124.5 -15.5v-102h-73q-111 0 -162 43 t-62.5 117.5t-11.5 224.5q0 98 -10 151.5t-43 81t-103 27.5z" />
<glyph unicode="|" horiz-adv-x="288" d="M82 -287v1501h125v-1501h-125z" />
<glyph unicode="}" horiz-adv-x="581" d="M88 -31q90 0 125 14.5t45 56.5t10 146q0 133 11.5 206t41 113t87.5 64q-63 25 -93 67t-39.5 120t-9.5 235q0 80 -13 116t-49 48t-116 12v105h76q111 0 161 -44t61 -118t11 -219q0 -98 10.5 -152.5t44 -83t101.5 -28.5v-115q-68 0 -101.5 -27.5t-44 -82t-10.5 -150.5 q0 -150 -11 -224.5t-61.5 -117.5t-160.5 -43h-76v102z" />
<glyph unicode="~" horiz-adv-x="1075" d="M143 496q8 98 66.5 150t144.5 52q51 0 97.5 -16t105.5 -47q55 -27 89 -39t69 -12q80 0 92 88h125q-8 -96 -66.5 -149.5t-144.5 -53.5q-47 0 -91 15.5t-104 45.5q-55 27 -92 40.5t-74 13.5q-84 0 -92 -88h-125z" />
<glyph horiz-adv-x="600" />
<glyph unicode="&#xa1;" horiz-adv-x="329" d="M70 805q0 43 31.5 72.5t76.5 29.5q47 0 79 -29.5t32 -72.5q0 -45 -32 -75t-79 -30t-77.5 30t-30.5 75zM100 41l29 541h100l29 -541v-348h-158v348z" />
<glyph unicode="&#xa2;" horiz-adv-x="960" d="M53 408q0 176 106.5 290.5t276.5 126.5v164h123v-170q123 -25 182 -112v102h127v-289h-114q-15 76 -67 124t-128 61v-603q78 8 134.5 45t109.5 99l63 -92q-113 -147 -307 -170v-166h-123v164q-172 18 -277.5 136t-105.5 290zM211 412q0 -117 61.5 -200t163.5 -106v594 q-102 -23 -163.5 -100.5t-61.5 -187.5z" />
<glyph unicode="&#xa3;" horiz-adv-x="1048" d="M88 164q0 80 56.5 137t150.5 57q80 0 162 -53v4q0 61 -22.5 114.5t-63.5 115.5h-226v104h156q-63 102 -63 205q0 152 99 240t261 88q172 0 259 -85t87 -235h-143q0 96 -50.5 149.5t-150.5 53.5q-98 0 -154.5 -58.5t-56.5 -160.5q0 -88 57 -197h406v-104h-348 q35 -63 52 -114.5t17 -107.5q0 -45 -10 -96q57 -49 98 -73.5t89 -24.5q135 0 135 158h110v-13q0 -135 -58 -208.5t-171 -73.5q-76 0 -134.5 32.5t-115.5 87.5q-37 -59 -92 -92.5t-123 -33.5q-96 0 -154.5 53t-58.5 131zM195 164q0 -43 29.5 -69.5t74.5 -26.5q51 0 86 31.5 t53 86.5q-70 74 -137 74q-47 0 -76.5 -25.5t-29.5 -70.5z" />
<glyph unicode="&#xa4;" horiz-adv-x="1247" d="M82 152l137 131q-106 135 -106 319q0 182 106 318l-137 131l92 92l131 -139q137 104 320 104q90 0 171 -27.5t146 -76.5l131 139l92 -92l-137 -131q106 -135 107 -318q-1 -184 -107 -319l137 -131l-92 -93l-131 140q-66 -49 -146.5 -77t-170.5 -28q-178 0 -320 105 l-131 -140zM264 602q0 -102 47 -186t129 -131t185 -47q100 0 182 47t129 131t47 186t-47 185t-129 130.5t-182 47.5q-102 0 -184.5 -47.5t-129.5 -130t-47 -185.5z" />
<glyph unicode="&#xa5;" horiz-adv-x="1286" d="M25 1044v109h479v-109h-146l304 -442l292 442h-147v109h455v-109h-158l-336 -491h221v-92h-260v-105h260v-94h-260v-153h170v-109h-504v109h168v153h-262v94h262v105h-262v92h221l-344 491h-153z" />
<glyph unicode="&#xa6;" horiz-adv-x="288" d="M82 -287v615h125v-615h-125zM82 600v614h125v-614h-125z" />
<glyph unicode="&#xa7;" horiz-adv-x="909" d="M135 621q0 59 34 105t89 69q-86 76 -86 198q0 115 84 182.5t221 67.5t209 -53t72 -133q0 -43 -31 -68.5t-86 -25.5q-4 92 -43 150t-127 58q-82 0 -127 -43t-45 -120q0 -53 22.5 -87t60.5 -57.5t130 -70.5q176 -90 245.5 -156t71.5 -160q0 -61 -29.5 -115.5t-76.5 -85.5 q57 -68 57 -170q0 -127 -79.5 -201.5t-231.5 -74.5q-158 0 -231.5 55.5t-73.5 139.5q0 51 30.5 76.5t79.5 25.5q2 -106 55.5 -165.5t153.5 -59.5q92 0 140.5 46t48.5 126q0 51 -20.5 83.5t-78 69.5t-182.5 101q-141 70 -198.5 134t-57.5 159zM252 651q0 -49 20.5 -81.5 t66.5 -61.5t144 -80q115 -55 181 -100q41 38 41 106q0 59 -47.5 109.5t-176.5 115.5q-133 63 -172 93q-27 -14 -42 -41t-15 -60z" />
<glyph unicode="&#xa8;" horiz-adv-x="987" d="M205 1024q0 39 25.5 63.5t66.5 24.5t67 -24.5t26 -63.5t-26 -63.5t-67 -24.5t-66.5 24.5t-25.5 63.5zM600 1024q0 41 25 64.5t66 23.5t66.5 -24.5t25.5 -63.5t-25.5 -63.5t-66.5 -24.5t-66 23.5t-25 64.5z" />
<glyph unicode="&#xa9;" horiz-adv-x="1529" d="M121 596q0 178 83 320.5t230.5 223.5t329.5 81q184 0 331.5 -81t230.5 -223.5t83 -320.5t-83 -321.5t-230.5 -224.5t-331.5 -81q-182 0 -329.5 81t-230.5 224.5t-83 321.5zM246 594q0 -150 66.5 -270.5t185 -188t266.5 -67.5q147 0 266 68.5t186.5 188t67.5 269.5 q0 152 -67.5 272.5t-186.5 189t-266 68.5t-265 -68.5t-185.5 -189.5t-67.5 -272zM420 596q0 109 48 188.5t127 121.5t173 42q66 0 121 -22.5t84 -65.5v74h94v-229h-90q-14 72 -67.5 112.5t-129.5 40.5q-100 0 -170.5 -69.5t-70.5 -190.5q0 -119 68.5 -193.5t170.5 -74.5 q68 0 128.5 30.5t103.5 83.5l67 -57q-45 -68 -128 -107.5t-175 -39.5q-100 0 -181 45t-127 126t-46 185z" />
<glyph unicode="&#xaa;" horiz-adv-x="743" d="M41 690q0 104 74.5 152.5t195.5 48.5q78 0 166 -17v64q0 70 -39 104.5t-112 34.5q-49 0 -110.5 -16.5t-109.5 -46.5l-40 82q49 39 120.5 58.5t145.5 19.5q127 0 199.5 -61.5t72.5 -164.5v-344h105v-90h-222l-6 59q-86 -74 -217 -73q-102 0 -162.5 55t-60.5 135zM164 694 q0 -47 31.5 -76.5t87.5 -29.5q51 0 103 18.5t91 50.5v140q-78 16 -153 16q-160 0 -160 -119z" />
<glyph unicode="&#xab;" horiz-adv-x="890" d="M39 592l297 399h110l-208 -397l208 -401h-110zM418 592l299 399h108l-209 -397l209 -401h-108z" />
<glyph unicode="&#xac;" horiz-adv-x="1064" d="M143 518v109h779v-355h-105v246h-674z" />
<glyph unicode="&#xad;" horiz-adv-x="710" d="M111 422v115h489v-115h-489z" />
<glyph unicode="&#xae;" horiz-adv-x="1529" d="M125 594q0 172 78 313.5t220 223t333 81.5q190 0 333.5 -82.5t221.5 -224t78 -311.5t-78 -311.5t-221.5 -223.5t-333.5 -82q-189 0 -332 82t-221 223.5t-78 311.5zM248 592q0 -143 61.5 -261t177 -186.5t269.5 -68.5q151 0 267 68.5t178.5 187.5t62.5 260 q0 143 -62.5 262t-178.5 189.5t-267 70.5q-154 0 -268.5 -69.5t-177 -189.5t-62.5 -263zM467 883v61h330q100 0 158.5 -47t58.5 -129q0 -66 -43 -112t-119 -58l143 -256h95v-61h-156l-168 309h-117v-248h88v-61h-268v61h90v541h-92zM649 653h146q59 0 94 31t35 84t-34 84 t-91 31h-150v-230z" />
<glyph unicode="&#xaf;" horiz-adv-x="839" d="M205 969v92h430v-92h-430z" />
<glyph unicode="&#xb0;" horiz-adv-x="483" d="M4 1001q0 96 65.5 166t172.5 70q106 0 171.5 -69.5t65.5 -166.5q0 -96 -65.5 -165.5t-171.5 -69.5q-107 0 -172.5 69.5t-65.5 165.5zM86 1001q0 -68 43 -114.5t115 -46.5q67 0 110 47t43 114q0 66 -42 114t-113 48q-70 0 -113 -47t-43 -115z" />
<glyph unicode="&#xb1;" horiz-adv-x="1169" d="M143 86v109h883v-109h-883zM143 670v108h381v365h123v-365h379v-108h-379v-371h-123v371h-381z" />
<glyph unicode="&#xb2;" horiz-adv-x="604" d="M41 1114q0 109 66.5 177.5t183.5 68.5q115 0 181.5 -59.5t66.5 -157.5q0 -88 -51.5 -159t-168.5 -177l-118 -109h256v129h94v-217h-502v76l199 184q96 90 138 148.5t42 120.5q0 57 -34 92t-103 35q-70 0 -109 -43t-39 -121q0 -37 13 -84h-99q-16 53 -16 96z" />
<glyph unicode="&#xb3;" horiz-adv-x="620" d="M41 750l86 49q25 -57 74 -89t116 -32q68 0 108 35t40 96q0 66 -52.5 97.5t-166.5 31.5l-2 88q104 0 151 30.5t47 88.5q0 55 -36.5 88t-98.5 33q-61 0 -105 -31t-71 -80l-88 45q33 74 103.5 117t162.5 43q111 0 177.5 -54.5t66.5 -146.5q0 -59 -33 -103t-96 -67 q78 -22 117 -73.5t39 -124.5q0 -94 -73 -150.5t-194 -56.5q-100 0 -173.5 45t-98.5 121z" />
<glyph unicode="&#xb4;" horiz-adv-x="690" d="M205 977l108 297h172l-184 -297h-96z" />
<glyph unicode="&#xb5;" horiz-adv-x="1075" d="M53 696v109h287v-539q0 -78 39 -122t119 -44q137 0 256 113v483h-146v109h295v-696h150v-109h-295l-4 98q-141 -119 -285 -118q-74 0 -129 32v-284h-152v968h-135z" />
<glyph unicode="&#xb6;" horiz-adv-x="1089" d="M121 834q0 137 92 228t276 91h525v-106h-148v-943h148v-110h-514v110h219v408h-252q-109 0 -186.5 44t-118.5 118t-41 160zM524 625h195v422h-195v-422z" />
<glyph unicode="&#xb7;" horiz-adv-x="466" d="M123 553q0 43 31.5 72.5t78.5 29.5t79 -29.5t32 -72.5t-31.5 -73.5t-79.5 -30.5q-47 0 -78.5 30.5t-31.5 73.5z" />
<glyph unicode="&#xb8;" horiz-adv-x="733" d="M205 -260q72 -20 117 -21q78 0 77 54q0 57 -116 63l63 164h68l-33 -119q74 -8 111 -42t37 -81q0 -59 -40 -87.5t-106 -28.5q-88 0 -178 39v59z" />
<glyph unicode="&#xb9;" horiz-adv-x="438" d="M41 610v82h123v545l-119 -16l-2 79l231 35v-643h123v-82h-356z" />
<glyph unicode="&#xba;" horiz-adv-x="815" d="M61 840q0 150 97.5 242t249.5 92t249 -92.5t97 -241.5q0 -154 -98.5 -247t-249.5 -93q-150 0 -247.5 93t-97.5 247zM195 838q0 -109 60 -172.5t153 -63.5q92 0 152.5 64.5t60.5 173.5q0 106 -60.5 168.5t-154.5 62.5q-90 0 -150.5 -63.5t-60.5 -169.5z" />
<glyph unicode="&#xbb;" horiz-adv-x="890" d="M66 193l208 401l-208 397h108l299 -399l-299 -399h-108zM444 193l209 401l-209 397h111l299 -399l-299 -399h-111z" />
<glyph unicode="&#xbc;" horiz-adv-x="1386" d="M82 450v82h123v545l-119 -16l-2 79l231 35v-643h123v-82h-356zM242 -2l764 1163h104l-762 -1163h-106zM717 258l352 467h105v-458h131v-80h-131v-105h114v-82h-331v82h114v105h-344zM834 267h237v317z" />
<glyph unicode="&#xbd;" horiz-adv-x="1449" d="M82 448v82h123v545l-119 -16l-2 79l231 35v-643h123v-82h-356zM240 -2l764 1163h104l-762 -1163h-106zM858 504q0 109 66.5 177.5t183.5 68.5q115 0 181.5 -59.5t66.5 -157.5q0 -88 -51.5 -159t-168.5 -177l-118 -109h256v129h94v-217h-502v76l199 184q96 90 138 148.5 t42 120.5q0 57 -34 92t-103 35q-70 0 -109 -43t-39 -121q0 -37 13 -84h-99q-16 53 -16 96z" />
<glyph unicode="&#xbe;" horiz-adv-x="1538" d="M82 586l86 49q25 -57 74 -89t116 -32q68 0 108 35t40 96q0 66 -52.5 97.5t-166.5 31.5l-2 88q104 0 151 30.5t47 88.5q0 55 -36.5 88t-98.5 33q-61 0 -105 -31t-71 -80l-88 45q33 74 103.5 117t162.5 43q111 0 177.5 -54.5t66.5 -146.5q0 -59 -33 -103t-96 -67 q78 -22 117 -73.5t39 -124.5q0 -94 -73 -150.5t-194 -56.5q-100 0 -173.5 45t-98.5 121zM400 -2l764 1163h104l-762 -1163h-106zM868 258l352 467h105v-458h131v-80h-131v-105h114v-82h-331v82h114v105h-344zM985 267h237v317z" />
<glyph unicode="&#xbf;" horiz-adv-x="790" d="M57 -41q0 84 42 148.5t141 166.5q76 78 99 132.5t23 156.5v12h158v-12q0 -74 -18.5 -128t-49 -97t-94.5 -113q-68 -76 -95 -133t-27 -129q0 -82 45 -126t118 -44q82 0 128 48t51 139h172q-8 -145 -107.5 -226.5t-241.5 -81.5q-156 0 -250 80t-94 207zM330 797 q0 45 32.5 74.5t79.5 29.5t79 -29.5t32 -74.5t-32 -75t-79 -30t-79.5 30t-32.5 75z" />
<glyph unicode="&#xc0;" horiz-adv-x="1382" d="M57 0v109h148l334 935h-129v109h563v-109h-133l344 -935h139v-109h-469v109h154l-117 335h-418l-115 -335h154v-109h-455zM459 1622h172l108 -297h-96zM506 553h352l-168 489h-12z" />
<glyph unicode="&#xc1;" horiz-adv-x="1382" d="M57 0v109h148l334 935h-129v109h563v-109h-133l344 -935h139v-109h-469v109h154l-117 335h-418l-115 -335h154v-109h-455zM506 553h352l-168 489h-12zM645 1325l108 297h172l-184 -297h-96z" />
<glyph unicode="&#xc2;" horiz-adv-x="1382" d="M57 0v109h148l334 935h-129v109h563v-109h-133l344 -935h139v-109h-469v109h154l-117 335h-418l-115 -335h154v-109h-455zM442 1268l170 321h160l170 -321h-115l-135 256l-135 -256h-115zM506 553h352l-168 489h-12z" />
<glyph unicode="&#xc3;" horiz-adv-x="1382" d="M57 0v109h148l334 935h-129v109h563v-109h-133l344 -935h139v-109h-469v109h154l-117 335h-418l-115 -335h154v-109h-455zM422 1319q8 90 47 135t102 45q45 0 144 -41q86 -35 114 -35q31 0 49.5 16.5t26.5 55.5h59q-6 -84 -40.5 -134t-102.5 -50q-29 0 -60.5 9t-59 18 t-36.5 14q-82 35 -116 34q-27 0 -42.5 -15t-21.5 -52h-63zM506 553h352l-168 489h-12z" />
<glyph unicode="&#xc4;" horiz-adv-x="1382" d="M57 0v109h148l334 935h-129v109h563v-109h-133l344 -935h139v-109h-469v109h154l-117 335h-418l-115 -335h154v-109h-455zM403 1372q0 39 25.5 63.5t66.5 24.5t67 -24.5t26 -63.5t-26 -63.5t-67 -24.5t-66.5 24.5t-25.5 63.5zM506 553h352l-168 489h-12zM798 1372 q0 41 25 64.5t66 23.5t66.5 -24.5t25.5 -63.5t-25.5 -63.5t-66.5 -24.5t-66 23.5t-25 64.5z" />
<glyph unicode="&#xc5;" horiz-adv-x="1382" d="M57 0v109h148l334 935h-129v109h563v-109h-133l344 -935h139v-109h-469v109h154l-117 335h-418l-115 -335h154v-109h-455zM506 553h352l-168 489h-12zM530 1378q0 66 43 108t119 42t119 -42t43 -108t-44 -109.5t-118 -43.5t-118 44t-44 109zM600 1378q0 -39 25.5 -64.5 t66.5 -25.5t65.5 25.5t24.5 64.5t-24.5 63.5t-65.5 24.5q-43 0 -67.5 -24.5t-24.5 -63.5z" />
<glyph unicode="&#xc6;" horiz-adv-x="1986" d="M45 0v109h156l573 935h-125v109h1143l18 -365h-127l-18 256h-557l25 -399h364l-8 135h82l24 -389h-84l-12 139h-364l24 -421h578l-17 258h127l21 -367h-1030v109h155l-18 311h-420l-178 -311h139v-109h-471zM608 522h365l-31 522h-18z" />
<glyph unicode="&#xc7;" horiz-adv-x="1361" d="M100 578q0 172 75 307t213 212t319 77q129 0 231 -48.5t160 -132.5v160h123v-348l-111 -4q-63 131 -159.5 190.5t-235.5 59.5q-133 0 -234.5 -62.5t-157 -169t-55.5 -239.5q0 -143 57.5 -252t160 -168.5t229.5 -59.5q139 0 248.5 65.5t158.5 207.5l123 -62 q-127 -324 -526 -334l-27 -96q74 -8 111 -42t37 -81q0 -59 -40 -87.5t-106 -28.5q-88 0 -178 39v59q72 -20 117 -21q78 0 78 54q0 57 -117 63l55 144q-164 12 -287.5 91t-192.5 210t-69 297z" />
<glyph unicode="&#xc8;" horiz-adv-x="1191" d="M80 0v109h160v935h-160v109h1003v-342h-129v233h-546v-391h358v135h84v-385h-84v138h-358v-432h557v239h129v-348h-1014zM402 1622h172l108 -297h-96z" />
<glyph unicode="&#xc9;" horiz-adv-x="1191" d="M80 0v109h160v935h-160v109h1003v-342h-129v233h-546v-391h358v135h84v-385h-84v138h-358v-432h557v239h129v-348h-1014zM588 1325l108 297h172l-184 -297h-96z" />
<glyph unicode="&#xca;" horiz-adv-x="1191" d="M80 0v109h160v935h-160v109h1003v-342h-129v233h-546v-391h358v135h84v-385h-84v138h-358v-432h557v239h129v-348h-1014zM385 1268l170 321h160l170 -321h-115l-135 256l-135 -256h-115z" />
<glyph unicode="&#xcb;" horiz-adv-x="1191" d="M80 0v109h160v935h-160v109h1003v-342h-129v233h-546v-391h358v135h84v-385h-84v138h-358v-432h557v239h129v-348h-1014zM346 1372q0 39 25.5 63.5t66.5 24.5t67 -24.5t26 -63.5t-26 -63.5t-67 -24.5t-66.5 24.5t-25.5 63.5zM741 1372q0 41 25 64.5t66 23.5t66.5 -24.5 t25.5 -63.5t-25.5 -63.5t-66.5 -24.5t-66 23.5t-25 64.5z" />
<glyph unicode="&#xcc;" horiz-adv-x="694" d="M102 0v109h160v935h-160v109h490v-109h-162v-935h162v-109h-490zM115 1622h172l108 -297h-96z" />
<glyph unicode="&#xcd;" horiz-adv-x="694" d="M102 0v109h160v935h-160v109h490v-109h-162v-935h162v-109h-490zM301 1325l108 297h172l-184 -297h-96z" />
<glyph unicode="&#xce;" horiz-adv-x="694" d="M98 1268l170 321h160l170 -321h-115l-135 256l-135 -256h-115zM102 0v109h160v935h-160v109h490v-109h-162v-935h162v-109h-490z" />
<glyph unicode="&#xcf;" horiz-adv-x="694" d="M59 1372q0 39 25.5 63.5t66.5 24.5t67 -24.5t26 -63.5t-26 -63.5t-67 -24.5t-66.5 24.5t-25.5 63.5zM102 0v109h160v935h-160v109h490v-109h-162v-935h162v-109h-490zM454 1372q0 41 25 64.5t66 23.5t66.5 -24.5t25.5 -63.5t-25.5 -63.5t-66.5 -24.5t-66 23.5t-25 64.5z " />
<glyph unicode="&#xd0;" horiz-adv-x="1400" d="M82 0v109h160v426h-160v114h160v395h-160v109h627q190 0 324 -80t200.5 -210t66.5 -275q0 -172 -66.5 -305t-198.5 -208t-324 -75h-629zM410 109h284q219 0 326.5 131t107.5 344q0 123 -47 227t-143 168.5t-238 64.5h-290v-395h161v-114h-161v-426z" />
<glyph unicode="&#xd1;" horiz-adv-x="1441" d="M84 0v109h164v935h-164v109h356l660 -932v823h-164v109h453v-109h-160v-1044h-166l-688 981v-872h164v-109h-455zM449 1319q8 90 47 135t102 45q45 0 144 -41q86 -35 114 -35q31 0 49.5 16.5t26.5 55.5h59q-6 -84 -40.5 -134t-102.5 -50q-29 0 -60.5 9t-59 18t-36.5 14 q-82 35 -116 34q-27 0 -42.5 -15t-21.5 -52h-63z" />
<glyph unicode="&#xd2;" horiz-adv-x="1452" d="M100 573q0 162 78 300.5t220.5 219.5t326.5 81t326.5 -81t220.5 -219.5t78 -300.5t-78 -298t-220.5 -217t-326.5 -81t-326.5 81t-220.5 217.5t-78 297.5zM281 571q0 -133 53 -239.5t153.5 -169t237.5 -62.5t237.5 63.5t154.5 171t54 238.5q0 133 -54 242t-154.5 173.5 t-237.5 64.5t-237.5 -64.5t-153.5 -174t-53 -243.5zM490 1622h172l108 -297h-96z" />
<glyph unicode="&#xd3;" horiz-adv-x="1452" d="M100 573q0 162 78 300.5t220.5 219.5t326.5 81t326.5 -81t220.5 -219.5t78 -300.5t-78 -298t-220.5 -217t-326.5 -81t-326.5 81t-220.5 217.5t-78 297.5zM281 571q0 -133 53 -239.5t153.5 -169t237.5 -62.5t237.5 63.5t154.5 171t54 238.5q0 133 -54 242t-154.5 173.5 t-237.5 64.5t-237.5 -64.5t-153.5 -174t-53 -243.5zM676 1325l108 297h172l-184 -297h-96z" />
<glyph unicode="&#xd4;" horiz-adv-x="1452" d="M100 573q0 162 78 300.5t220.5 219.5t326.5 81t326.5 -81t220.5 -219.5t78 -300.5t-78 -298t-220.5 -217t-326.5 -81t-326.5 81t-220.5 217.5t-78 297.5zM281 571q0 -133 53 -239.5t153.5 -169t237.5 -62.5t237.5 63.5t154.5 171t54 238.5q0 133 -54 242t-154.5 173.5 t-237.5 64.5t-237.5 -64.5t-153.5 -174t-53 -243.5zM473 1268l170 321h160l170 -321h-115l-135 256l-135 -256h-115z" />
<glyph unicode="&#xd5;" horiz-adv-x="1452" d="M100 573q0 162 78 300.5t220.5 219.5t326.5 81t326.5 -81t220.5 -219.5t78 -300.5t-78 -298t-220.5 -217t-326.5 -81t-326.5 81t-220.5 217.5t-78 297.5zM281 571q0 -133 53 -239.5t153.5 -169t237.5 -62.5t237.5 63.5t154.5 171t54 238.5q0 133 -54 242t-154.5 173.5 t-237.5 64.5t-237.5 -64.5t-153.5 -174t-53 -243.5zM453 1319q8 90 47 135t102 45q45 0 144 -41q86 -35 114 -35q31 0 49.5 16.5t26.5 55.5h59q-6 -84 -40.5 -134t-102.5 -50q-29 0 -60.5 9t-59 18t-36.5 14q-82 35 -116 34q-27 0 -42.5 -15t-21.5 -52h-63z" />
<glyph unicode="&#xd6;" horiz-adv-x="1452" d="M100 573q0 162 78 300.5t220.5 219.5t326.5 81t326.5 -81t220.5 -219.5t78 -300.5t-78 -298t-220.5 -217t-326.5 -81t-326.5 81t-220.5 217.5t-78 297.5zM281 571q0 -133 53 -239.5t153.5 -169t237.5 -62.5t237.5 63.5t154.5 171t54 238.5q0 133 -54 242t-154.5 173.5 t-237.5 64.5t-237.5 -64.5t-153.5 -174t-53 -243.5zM434 1372q0 39 25.5 63.5t66.5 24.5t67 -24.5t26 -63.5t-26 -63.5t-67 -24.5t-66.5 24.5t-25.5 63.5zM829 1372q0 41 25 64.5t66 23.5t66.5 -24.5t25.5 -63.5t-25.5 -63.5t-66.5 -24.5t-66 23.5t-25 64.5z" />
<glyph unicode="&#xd7;" horiz-adv-x="1005" d="M57 211l363 362l-357 359l80 80l359 -357l362 363l84 -82l-364 -365l356 -356l-80 -80l-356 357l-365 -365z" />
<glyph unicode="&#xd8;" horiz-adv-x="1351" d="M51 571q0 162 78 300.5t220.5 219t326.5 80.5q195 0 348 -94l111 142l77 -54l-112 -143q96 -84 148 -202t52 -249q0 -162 -77.5 -298t-220 -217t-326.5 -81q-182 0 -332 84l-104 -135l-78 56l104 133q-102 84 -158.5 202.5t-56.5 255.5zM231 569q0 -102 32 -191t93 -151 l582 742q-111 82 -262 82q-137 0 -237.5 -64.5t-154 -174.5t-53.5 -243zM430 166q102 -68 246 -68q137 0 237.5 63.5t154.5 171t54 238.5q0 96 -29.5 182.5t-84.5 151.5z" />
<glyph unicode="&#xd9;" horiz-adv-x="1372" d="M55 1044v109h473v-109h-153v-649q0 -137 85 -215t234 -78q162 0 251 78t89 217v647h-151v109h448v-109h-155v-641q0 -207 -132.5 -315t-353.5 -108q-246 0 -363.5 118.5t-117.5 319.5v626h-154zM472 1622h172l108 -297h-96z" />
<glyph unicode="&#xda;" horiz-adv-x="1372" d="M55 1044v109h473v-109h-153v-649q0 -137 85 -215t234 -78q162 0 251 78t89 217v647h-151v109h448v-109h-155v-641q0 -207 -132.5 -315t-353.5 -108q-246 0 -363.5 118.5t-117.5 319.5v626h-154zM658 1325l108 297h172l-184 -297h-96z" />
<glyph unicode="&#xdb;" horiz-adv-x="1372" d="M55 1044v109h473v-109h-153v-649q0 -137 85 -215t234 -78q162 0 251 78t89 217v647h-151v109h448v-109h-155v-641q0 -207 -132.5 -315t-353.5 -108q-246 0 -363.5 118.5t-117.5 319.5v626h-154zM455 1268l170 321h160l170 -321h-115l-135 256l-135 -256h-115z" />
<glyph unicode="&#xdc;" horiz-adv-x="1372" d="M55 1044v109h473v-109h-153v-649q0 -137 85 -215t234 -78q162 0 251 78t89 217v647h-151v109h448v-109h-155v-641q0 -207 -132.5 -315t-353.5 -108q-246 0 -363.5 118.5t-117.5 319.5v626h-154zM416 1372q0 39 25.5 63.5t66.5 24.5t67 -24.5t26 -63.5t-26 -63.5 t-67 -24.5t-66.5 24.5t-25.5 63.5zM811 1372q0 41 25 64.5t66 23.5t66.5 -24.5t25.5 -63.5t-25.5 -63.5t-66.5 -24.5t-66 23.5t-25 64.5z" />
<glyph unicode="&#xdd;" horiz-adv-x="1294" d="M29 1044v109h479v-109h-146l304 -442l292 442h-147v109h455v-109h-158l-375 -548v-387h170v-109h-504v109h168v385l-385 550h-153zM612 1325l108 297h172l-184 -297h-96z" />
<glyph unicode="&#xde;" horiz-adv-x="1136" d="M102 0v109h160v935h-160v109h490v-109h-162v-131h248q184 0 285.5 -75.5t101.5 -210.5q0 -145 -99.5 -222t-283.5 -77h-190v98h190q106 0 164.5 51t58.5 150q0 84 -60.5 132t-166.5 48h-248v-698h162v-109h-490z" />
<glyph unicode="&#xdf;" horiz-adv-x="1085" d="M41 0v111h152v692q0 184 101 287.5t277 103.5q158 0 247 -79t89 -210q0 -92 -44 -159.5t-120 -96.5q140 -20 215.5 -99t75.5 -212q0 -168 -119.5 -253t-332.5 -85v111q289 0 288 229q0 240 -297 240h-30v106h30q86 2 133.5 57.5t47.5 147.5q0 86 -47.5 136t-131.5 50 q-102 0 -160.5 -71.5t-58.5 -194.5v-700h119v-111h-434z" />
<glyph unicode="&#xe0;" d="M80 217q0 131 89 191.5t234 60.5q104 0 224 -27v84q0 92 -50.5 139.5t-140.5 47.5q-59 0 -136 -19.5t-140 -54.5l-45 98q68 43 156.5 65.5t166.5 22.5q158 0 248 -76.5t90 -207.5v-432h127v-109h-260l-8 72q-66 -49 -131.5 -72t-147.5 -23q-123 0 -199.5 69t-76.5 171z M211 1274h172l108 -297h-96zM223 225q0 -63 42 -103t114 -40q121 0 248 88v184q-109 25 -213 25q-82 0 -136.5 -36t-54.5 -118z" />
<glyph unicode="&#xe1;" d="M80 217q0 131 89 191.5t234 60.5q104 0 224 -27v84q0 92 -50.5 139.5t-140.5 47.5q-59 0 -136 -19.5t-140 -54.5l-45 98q68 43 156.5 65.5t166.5 22.5q158 0 248 -76.5t90 -207.5v-432h127v-109h-260l-8 72q-66 -49 -131.5 -72t-147.5 -23q-123 0 -199.5 69t-76.5 171z M223 225q0 -63 42 -103t114 -40q121 0 248 88v184q-109 25 -213 25q-82 0 -136.5 -36t-54.5 -118zM397 977l108 297h172l-184 -297h-96z" />
<glyph unicode="&#xe2;" d="M80 217q0 131 89 191.5t234 60.5q104 0 224 -27v84q0 92 -50.5 139.5t-140.5 47.5q-59 0 -136 -19.5t-140 -54.5l-45 98q68 43 156.5 65.5t166.5 22.5q158 0 248 -76.5t90 -207.5v-432h127v-109h-260l-8 72q-66 -49 -131.5 -72t-147.5 -23q-123 0 -199.5 69t-76.5 171z M194 920l170 321h160l170 -321h-115l-135 256l-135 -256h-115zM223 225q0 -63 42 -103t114 -40q121 0 248 88v184q-109 25 -213 25q-82 0 -136.5 -36t-54.5 -118z" />
<glyph unicode="&#xe3;" d="M80 217q0 131 89 191.5t234 60.5q104 0 224 -27v84q0 92 -50.5 139.5t-140.5 47.5q-59 0 -136 -19.5t-140 -54.5l-45 98q68 43 156.5 65.5t166.5 22.5q158 0 248 -76.5t90 -207.5v-432h127v-109h-260l-8 72q-66 -49 -131.5 -72t-147.5 -23q-123 0 -199.5 69t-76.5 171z M174 971q8 90 47 135t102 45q45 0 144 -41q86 -35 114 -35q31 0 49.5 16.5t26.5 55.5h59q-6 -84 -40.5 -134t-102.5 -50q-29 0 -60.5 9t-59 18t-36.5 14q-82 35 -116 34q-27 0 -42.5 -15t-21.5 -52h-63zM223 225q0 -63 42 -103t114 -40q121 0 248 88v184q-109 25 -213 25 q-82 0 -136.5 -36t-54.5 -118z" />
<glyph unicode="&#xe4;" d="M80 217q0 131 89 191.5t234 60.5q104 0 224 -27v84q0 92 -50.5 139.5t-140.5 47.5q-59 0 -136 -19.5t-140 -54.5l-45 98q68 43 156.5 65.5t166.5 22.5q158 0 248 -76.5t90 -207.5v-432h127v-109h-260l-8 72q-66 -49 -131.5 -72t-147.5 -23q-123 0 -199.5 69t-76.5 171z M155 1024q0 39 25.5 63.5t66.5 24.5t67 -24.5t26 -63.5t-26 -63.5t-67 -24.5t-66.5 24.5t-25.5 63.5zM223 225q0 -63 42 -103t114 -40q121 0 248 88v184q-109 25 -213 25q-82 0 -136.5 -36t-54.5 -118zM550 1024q0 41 25 64.5t66 23.5t66.5 -24.5t25.5 -63.5t-25.5 -63.5 t-66.5 -24.5t-66 23.5t-25 64.5z" />
<glyph unicode="&#xe5;" d="M80 217q0 131 89 191.5t234 60.5q104 0 224 -27v84q0 92 -50.5 139.5t-140.5 47.5q-59 0 -136 -19.5t-140 -54.5l-45 98q68 43 156.5 65.5t166.5 22.5q158 0 248 -76.5t90 -207.5v-432h127v-109h-260l-8 72q-66 -49 -131.5 -72t-147.5 -23q-123 0 -199.5 69t-76.5 171z M223 225q0 -63 42 -103t114 -40q121 0 248 88v184q-109 25 -213 25q-82 0 -136.5 -36t-54.5 -118zM282 1030q0 66 43 108t119 42t119 -42t43 -108t-44 -109.5t-118 -43.5t-118 44t-44 109zM352 1030q0 -39 25.5 -64.5t66.5 -25.5t65.5 25.5t24.5 64.5t-24.5 63.5t-65.5 24.5 q-43 0 -67.5 -24.5t-24.5 -63.5z" />
<glyph unicode="&#xe6;" horiz-adv-x="1519" d="M80 217q0 129 94 188.5t248 59.5h205v61q0 92 -50.5 139.5t-140.5 47.5q-59 0 -136 -19.5t-140 -54.5l-45 98q68 43 156.5 65.5t166.5 22.5q102 0 178 -34.5t117 -96.5q57 63 140 98t180 35q184 0 289.5 -112.5t105.5 -304.5v-39h-664q14 -129 92 -204t199 -75 q170 0 305 129l54 -92q-59 -70 -149.5 -112t-203.5 -42q-109 0 -202 40t-154 112q-84 -78 -169 -114t-189 -36q-127 0 -207 69t-80 171zM223 225q0 -63 45 -103t121 -40q74 0 141.5 28.5t143.5 92.5q-41 76 -47 168h-195q-92 0 -150.5 -34t-58.5 -112zM784 465h514 q0 117 -68.5 184.5t-176.5 67.5q-106 0 -180 -67.5t-89 -184.5z" />
<glyph unicode="&#xe7;" horiz-adv-x="960" d="M53 408q0 123 54.5 218t150.5 148t217 53q90 0 160 -32.5t106 -87.5v102h127v-289h-114q-18 88 -84 138.5t-160 50.5q-131 0 -215 -84t-84 -213q0 -139 82 -226.5t213 -87.5q98 0 165.5 38t131.5 110l63 -92q-125 -162 -346 -174l-26 -99q74 -8 110.5 -42t36.5 -81 q0 -59 -40 -87.5t-105 -28.5q-88 0 -179 39v59q72 -20 117 -21q78 0 78 54q0 57 -117 63l56 146q-115 8 -206 64t-141.5 150.5t-50.5 211.5z" />
<glyph unicode="&#xe8;" horiz-adv-x="944" d="M51 401q0 127 56.5 224.5t153.5 149.5t216 52q184 0 289.5 -112.5t105.5 -304.5v-39h-663q14 -129 92 -204t199 -75q168 0 305 129l53 -92q-59 -70 -149.5 -112t-202.5 -42q-127 0 -231.5 53.5t-164 150.5t-59.5 222zM209 465h514q0 117 -68.5 184.5t-177.5 67.5 q-106 0 -180 -67.5t-88 -184.5zM250 1274h172l108 -297h-96z" />
<glyph unicode="&#xe9;" horiz-adv-x="944" d="M51 401q0 127 56.5 224.5t153.5 149.5t216 52q184 0 289.5 -112.5t105.5 -304.5v-39h-663q14 -129 92 -204t199 -75q168 0 305 129l53 -92q-59 -70 -149.5 -112t-202.5 -42q-127 0 -231.5 53.5t-164 150.5t-59.5 222zM209 465h514q0 117 -68.5 184.5t-177.5 67.5 q-106 0 -180 -67.5t-88 -184.5zM436 977l108 297h172l-184 -297h-96z" />
<glyph unicode="&#xea;" horiz-adv-x="944" d="M51 401q0 127 56.5 224.5t153.5 149.5t216 52q184 0 289.5 -112.5t105.5 -304.5v-39h-663q14 -129 92 -204t199 -75q168 0 305 129l53 -92q-59 -70 -149.5 -112t-202.5 -42q-127 0 -231.5 53.5t-164 150.5t-59.5 222zM209 465h514q0 117 -68.5 184.5t-177.5 67.5 q-106 0 -180 -67.5t-88 -184.5zM233 920l170 321h160l170 -321h-115l-135 256l-135 -256h-115z" />
<glyph unicode="&#xeb;" horiz-adv-x="944" d="M51 401q0 127 56.5 224.5t153.5 149.5t216 52q184 0 289.5 -112.5t105.5 -304.5v-39h-663q14 -129 92 -204t199 -75q168 0 305 129l53 -92q-59 -70 -149.5 -112t-202.5 -42q-127 0 -231.5 53.5t-164 150.5t-59.5 222zM194 1024q0 39 25.5 63.5t66.5 24.5t67 -24.5 t26 -63.5t-26 -63.5t-67 -24.5t-66.5 24.5t-25.5 63.5zM209 465h514q0 117 -68.5 184.5t-177.5 67.5q-106 0 -180 -67.5t-88 -184.5zM589 1024q0 41 25 64.5t66 23.5t66.5 -24.5t25.5 -63.5t-25.5 -63.5t-66.5 -24.5t-66 23.5t-25 64.5z" />
<glyph unicode="&#xec;" horiz-adv-x="546" d="M23 1274h172l108 -297h-96zM45 0v109h156v587h-154v109h303v-696h146v-109h-451z" />
<glyph unicode="&#xed;" horiz-adv-x="546" d="M45 0v109h156v587h-154v109h303v-696h146v-109h-451zM209 977l108 297h172l-184 -297h-96z" />
<glyph unicode="&#xee;" horiz-adv-x="546" d="M6 920l170 321h160l170 -321h-115l-135 256l-135 -256h-115zM45 0v109h156v587h-154v109h303v-696h146v-109h-451z" />
<glyph unicode="&#xef;" horiz-adv-x="546" d="M-33 1024q0 39 25.5 63.5t66.5 24.5t67 -24.5t26 -63.5t-26 -63.5t-67 -24.5t-66.5 24.5t-25.5 63.5zM45 0v109h156v587h-154v109h303v-696h146v-109h-451zM362 1024q0 41 25 64.5t66 23.5t66.5 -24.5t25.5 -63.5t-25.5 -63.5t-66.5 -24.5t-66 23.5t-25 64.5z" />
<glyph unicode="&#xf0;" horiz-adv-x="980" d="M86 381q0 117 47 210t136 145t210 52q80 0 137.5 -23.5t83.5 -47.5q-68 139 -215 282l-258 -114l-45 92l224 100q-106 96 -246 201l73 92q184 -143 291 -242l260 117l47 -90l-229 -102q141 -146 222 -305.5t81 -348.5q0 -121 -53 -217t-146.5 -149t-209.5 -53 q-129 0 -221.5 53t-140.5 144t-48 204zM231 383q0 -117 71 -200t194 -83q133 0 201.5 87t68.5 212q0 129 -72.5 204t-197.5 75q-123 0 -194 -81t-71 -214z" />
<glyph unicode="&#xf1;" horiz-adv-x="1058" d="M45 0v109h156v587h-156v109h305v-80q160 100 291 100q115 0 189.5 -70.5t74.5 -197.5v-448h150v-109h-432v109h133v419q0 84 -41 131.5t-113 47.5q-59 0 -119.5 -21.5t-132.5 -64.5v-512h146v-109h-451zM308 971q8 90 47 135t102 45q45 0 144 -41q86 -35 114 -35 q31 0 49.5 16.5t26.5 55.5h59q-6 -84 -40.5 -134t-102.5 -50q-29 0 -60.5 9t-59 18t-36.5 14q-82 35 -116 34q-27 0 -42.5 -15t-21.5 -52h-63z" />
<glyph unicode="&#xf2;" horiz-adv-x="974" d="M51 403q0 127 54.5 223.5t152.5 148.5t227 52t228.5 -52t155 -148.5t55.5 -220.5q0 -127 -55.5 -225.5t-155 -152t-228.5 -53.5t-227 53.5t-152.5 150.5t-54.5 224zM207 403q0 -139 76.5 -224t201.5 -85q127 0 205 85t78 227q0 137 -78 220t-205 83t-202.5 -84 t-75.5 -222zM252 1274h172l108 -297h-96z" />
<glyph unicode="&#xf3;" horiz-adv-x="974" d="M51 403q0 127 54.5 223.5t152.5 148.5t227 52t228.5 -52t155 -148.5t55.5 -220.5q0 -127 -55.5 -225.5t-155 -152t-228.5 -53.5t-227 53.5t-152.5 150.5t-54.5 224zM207 403q0 -139 76.5 -224t201.5 -85q127 0 205 85t78 227q0 137 -78 220t-205 83t-202.5 -84 t-75.5 -222zM438 977l108 297h172l-184 -297h-96z" />
<glyph unicode="&#xf4;" horiz-adv-x="974" d="M51 403q0 127 54.5 223.5t152.5 148.5t227 52t228.5 -52t155 -148.5t55.5 -220.5q0 -127 -55.5 -225.5t-155 -152t-228.5 -53.5t-227 53.5t-152.5 150.5t-54.5 224zM207 403q0 -139 76.5 -224t201.5 -85q127 0 205 85t78 227q0 137 -78 220t-205 83t-202.5 -84 t-75.5 -222zM235 920l170 321h160l170 -321h-115l-135 256l-135 -256h-115z" />
<glyph unicode="&#xf5;" horiz-adv-x="974" d="M51 403q0 127 54.5 223.5t152.5 148.5t227 52t228.5 -52t155 -148.5t55.5 -220.5q0 -127 -55.5 -225.5t-155 -152t-228.5 -53.5t-227 53.5t-152.5 150.5t-54.5 224zM207 403q0 -139 76.5 -224t201.5 -85q127 0 205 85t78 227q0 137 -78 220t-205 83t-202.5 -84 t-75.5 -222zM215 971q8 90 47 135t102 45q45 0 144 -41q86 -35 114 -35q31 0 49.5 16.5t26.5 55.5h59q-6 -84 -40.5 -134t-102.5 -50q-29 0 -60.5 9t-59 18t-36.5 14q-82 35 -116 34q-27 0 -42.5 -15t-21.5 -52h-63z" />
<glyph unicode="&#xf6;" horiz-adv-x="974" d="M51 403q0 127 54.5 223.5t152.5 148.5t227 52t228.5 -52t155 -148.5t55.5 -220.5q0 -127 -55.5 -225.5t-155 -152t-228.5 -53.5t-227 53.5t-152.5 150.5t-54.5 224zM196 1024q0 39 25.5 63.5t66.5 24.5t67 -24.5t26 -63.5t-26 -63.5t-67 -24.5t-66.5 24.5t-25.5 63.5z M207 403q0 -139 76.5 -224t201.5 -85q127 0 205 85t78 227q0 137 -78 220t-205 83t-202.5 -84t-75.5 -222zM591 1024q0 41 25 64.5t66 23.5t66.5 -24.5t25.5 -63.5t-25.5 -63.5t-66.5 -24.5t-66 23.5t-25 64.5z" />
<glyph unicode="&#xf7;" horiz-adv-x="1169" d="M143 518v109h883v-109h-883zM494 123v184h184v-184h-184zM494 838v184h184v-184h-184z" />
<glyph unicode="&#xf8;" horiz-adv-x="987" d="M51 403q0 127 54.5 223.5t152.5 148.5t227 52q98 0 179 -30l71 131l72 -35l-72 -131q90 -53 139.5 -145.5t49.5 -210.5q0 -127 -55.5 -225.5t-155 -152t-228.5 -53.5q-92 0 -163 27l-72 -131l-72 37l70 127q-92 53 -144.5 148.5t-52.5 219.5zM207 403q0 -81 27.5 -145.5 t76.5 -105.5l293 534q-57 23 -119 23q-127 0 -202.5 -84t-75.5 -222zM381 113q49 -18 104 -19q127 0 205 85t78 227q0 76 -24.5 137t-71.5 100z" />
<glyph unicode="&#xf9;" horiz-adv-x="1044" d="M23 696v109h286v-539q0 -78 38 -122t114 -44q139 0 262 113v483h-145v109h294v-696h150v-109h-295l-4 98q-147 -119 -297 -118q-135 0 -201.5 75.5t-66.5 194.5v446h-135zM256 1274h172l108 -297h-96z" />
<glyph unicode="&#xfa;" horiz-adv-x="1044" d="M23 696v109h286v-539q0 -78 38 -122t114 -44q139 0 262 113v483h-145v109h294v-696h150v-109h-295l-4 98q-147 -119 -297 -118q-135 0 -201.5 75.5t-66.5 194.5v446h-135zM442 977l108 297h172l-184 -297h-96z" />
<glyph unicode="&#xfb;" horiz-adv-x="1044" d="M23 696v109h286v-539q0 -78 38 -122t114 -44q139 0 262 113v483h-145v109h294v-696h150v-109h-295l-4 98q-147 -119 -297 -118q-135 0 -201.5 75.5t-66.5 194.5v446h-135zM239 920l170 321h160l170 -321h-115l-135 256l-135 -256h-115z" />
<glyph unicode="&#xfc;" horiz-adv-x="1044" d="M23 696v109h286v-539q0 -78 38 -122t114 -44q139 0 262 113v483h-145v109h294v-696h150v-109h-295l-4 98q-147 -119 -297 -118q-135 0 -201.5 75.5t-66.5 194.5v446h-135zM200 1024q0 39 25.5 63.5t66.5 24.5t67 -24.5t26 -63.5t-26 -63.5t-67 -24.5t-66.5 24.5 t-25.5 63.5zM595 1024q0 41 25 64.5t66 23.5t66.5 -24.5t25.5 -63.5t-25.5 -63.5t-66.5 -24.5t-66 23.5t-25 64.5z" />
<glyph unicode="&#xfd;" horiz-adv-x="1062" d="M16 696v109h422v-109h-119l242 -546l215 546h-139v109h420v-109h-131l-299 -743q-45 -117 -75 -169t-85 -81t-156 -29h-104v123h92q57 0 88 8.5t54.5 37t43.5 89.5l43 119h-63l-299 645h-150zM492 977l108 297h172l-184 -297h-96z" />
<glyph unicode="&#xfe;" horiz-adv-x="1099" d="M33 1042v111h301v-430q68 57 147.5 87t159.5 30q109 0 198 -48.5t141 -141.5t52 -222q0 -133 -56 -231.5t-151.5 -150.5t-208.5 -52q-78 0 -152.5 30.5t-129.5 86.5v-326h143v-111h-436v111h139v1257h-147zM334 217q55 -53 122.5 -82t133.5 -29q127 0 205.5 81t78.5 229 q0 143 -76.5 226t-197.5 83q-66 0 -135.5 -31.5t-130.5 -89.5v-387z" />
<glyph unicode="&#xff;" horiz-adv-x="1062" d="M16 696v109h422v-109h-119l242 -546l215 546h-139v109h420v-109h-131l-299 -743q-45 -117 -75 -169t-85 -81t-156 -29h-104v123h92q57 0 88 8.5t54.5 37t43.5 89.5l43 119h-63l-299 645h-150zM250 1024q0 39 25.5 63.5t66.5 24.5t67 -24.5t26 -63.5t-26 -63.5t-67 -24.5 t-66.5 24.5t-25.5 63.5zM645 1024q0 41 25 64.5t66 23.5t66.5 -24.5t25.5 -63.5t-25.5 -63.5t-66.5 -24.5t-66 23.5t-25 64.5z" />
<glyph unicode="&#x152;" horiz-adv-x="1949" d="M100 580q0 176 78 305t222.5 198.5t340.5 69.5h1100v-346h-129v237h-545v-403h363v133h84v-379h-84v135h-363v-424h555v250h129v-356h-1108q-196 0 -341.5 69.5t-223.5 200.5t-78 310zM279 578q0 -217 128 -344.5t349 -127.5h245v938h-247q-219 0 -347 -124.5 t-128 -341.5z" />
<glyph unicode="&#x153;" horiz-adv-x="1650" d="M51 401q0 121 54.5 218.5t151.5 151.5t222 54q119 0 212 -53t147 -147q53 96 145 148t205 52q182 0 286.5 -112.5t104.5 -304.5v-39h-670q8 -127 89 -204t210 -77q76 0 152 33t127 86l76 -80q-59 -72 -152.5 -111t-208.5 -39q-119 0 -216 52.5t-150 146.5 q-53 -92 -146.5 -145.5t-210.5 -53.5q-127 0 -224 54.5t-150.5 151t-53.5 218.5zM199 401q0 -137 76.5 -223t203.5 -86t204 86t77 223t-77 222.5t-204 85.5t-203.5 -85t-76.5 -223zM911 459h531q0 119 -69.5 187.5t-180.5 68.5q-119 0 -192.5 -68.5t-88.5 -187.5z" />
<glyph unicode="&#x178;" horiz-adv-x="1294" d="M29 1044v109h479v-109h-146l304 -442l292 442h-147v109h455v-109h-158l-375 -548v-387h170v-109h-504v109h168v385l-385 550h-153zM370 1372q0 39 25.5 63.5t66.5 24.5t67 -24.5t26 -63.5t-26 -63.5t-67 -24.5t-66.5 24.5t-25.5 63.5zM765 1372q0 41 25 64.5t66 23.5 t66.5 -24.5t25.5 -63.5t-25.5 -63.5t-66.5 -24.5t-66 23.5t-25 64.5z" />
<glyph unicode="&#x2c6;" horiz-adv-x="909" d="M205 920l170 321h160l170 -321h-115l-135 256l-135 -256h-115z" />
<glyph unicode="&#x2dc;" horiz-adv-x="952" d="M205 971q8 90 47 135t102 45q45 0 144 -41q86 -35 114 -35q31 0 49.5 16.5t26.5 55.5h59q-6 -84 -40.5 -134t-102.5 -50q-29 0 -60.5 9t-59 18t-36.5 14q-82 35 -116 34q-27 0 -42.5 -15t-21.5 -52h-63z" />
<glyph unicode="&#x2000;" horiz-adv-x="811" />
<glyph unicode="&#x2001;" horiz-adv-x="1622" />
<glyph unicode="&#x2002;" horiz-adv-x="811" />
<glyph unicode="&#x2003;" horiz-adv-x="1622" />
<glyph unicode="&#x2004;" horiz-adv-x="540" />
<glyph unicode="&#x2005;" horiz-adv-x="405" />
<glyph unicode="&#x2006;" horiz-adv-x="270" />
<glyph unicode="&#x2007;" horiz-adv-x="270" />
<glyph unicode="&#x2008;" horiz-adv-x="202" />
<glyph unicode="&#x2009;" horiz-adv-x="324" />
<glyph unicode="&#x200a;" horiz-adv-x="90" />
<glyph unicode="&#x2010;" horiz-adv-x="710" d="M111 422v115h489v-115h-489z" />
<glyph unicode="&#x2011;" horiz-adv-x="710" d="M111 422v115h489v-115h-489z" />
<glyph unicode="&#x2012;" horiz-adv-x="710" d="M111 422v115h489v-115h-489z" />
<glyph unicode="&#x2013;" horiz-adv-x="1304" d="M0 422v115h1305v-115h-1305z" />
<glyph unicode="&#x2014;" horiz-adv-x="1523" d="M0 422v115h1524v-115h-1524z" />
<glyph unicode="&#x2018;" horiz-adv-x="432" d="M143 778v164q0 133 49.5 200.5t157.5 67.5v-77q-63 -10 -86.5 -44t-23.5 -116h104v-195h-201z" />
<glyph unicode="&#x2019;" horiz-adv-x="432" d="M82 778v78q63 10 86.5 44t23.5 116h-104v195h201v-164q0 -133 -49.5 -201t-157.5 -68z" />
<glyph unicode="&#x201a;" horiz-adv-x="432" d="M82 -160q63 10 86.5 44t23.5 116h-104v195h201v-164q0 -133 -49.5 -201t-157.5 -68v78z" />
<glyph unicode="&#x201c;" horiz-adv-x="727" d="M143 778v164q0 133 49.5 200.5t157.5 67.5v-77q-63 -10 -86.5 -44t-23.5 -116h104v-195h-201zM438 778v164q0 133 49.5 200.5t157.5 67.5v-77q-63 -10 -86.5 -44t-23.5 -116h104v-195h-201z" />
<glyph unicode="&#x201d;" horiz-adv-x="727" d="M82 778v78q63 10 86.5 44t23.5 116h-104v195h201v-164q0 -133 -49.5 -201t-157.5 -68zM377 778v78q63 10 86.5 44t23.5 116h-104v195h201v-164q0 -133 -49.5 -201t-157.5 -68z" />
<glyph unicode="&#x201e;" horiz-adv-x="727" d="M82 -160q63 10 86.5 44t23.5 116h-104v195h201v-164q0 -133 -49.5 -201t-157.5 -68v78zM377 -160q63 10 86.5 44t23.5 116h-104v195h201v-164q0 -133 -49.5 -201t-157.5 -68v78z" />
<glyph unicode="&#x2022;" horiz-adv-x="548" d="M74 500q0 80 57 136t143 56q90 0 145.5 -53t55.5 -139q0 -82 -56.5 -137.5t-144.5 -55.5q-86 0 -143 58.5t-57 134.5z" />
<glyph unicode="&#x2026;" horiz-adv-x="1191" d="M123 0v193h192v-193h-192zM479 0v193h192v-193h-192zM836 0v193h192v-193h-192z" />
<glyph unicode="&#x202f;" horiz-adv-x="324" />
<glyph unicode="&#x2039;" horiz-adv-x="555" d="M20 592l299 399h109l-209 -397l209 -401h-109z" />
<glyph unicode="&#x203a;" horiz-adv-x="555" d="M127 193l209 401l-209 397h109l299 -397l-299 -401h-109z" />
<glyph unicode="&#x205f;" horiz-adv-x="405" />
<glyph unicode="&#x20ac;" horiz-adv-x="1361" d="M-8 410v94h112q-4 49 -4 74q0 39 2 57h-110v94h125q45 201 202.5 323t387.5 122q129 0 231 -48.5t160 -132.5v160h123v-348l-111 -4q-63 131 -159.5 190.5t-235.5 59.5q-160 0 -273.5 -88.5t-152.5 -233.5h600v-94h-619q-2 -18 -2 -55q0 -27 4 -76h617v-94h-596 q45 -143 157.5 -226.5t264.5 -83.5q139 0 248.5 65.5t158.5 207.5l123 -62q-129 -330 -540 -334q-225 2 -381 118t-203 315h-129z" />
<glyph unicode="&#x2122;" horiz-adv-x="1755" d="M147 911v242h555v-242h-79v162h-148v-481h88v-78h-278v78h90v481h-148v-162h-80zM799 514v80h80v481h-80v78h207l188 -455l188 455h213v-78h-79v-481h79v-80h-254v80h78v428l-209 -490h-34l-218 490v-428h78v-80h-237z" />
<glyph unicode="&#x25fc;" horiz-adv-x="808" d="M0 0v809h809v-809h-809z" />
</font>
</defs>
</svg>
