<?xml version="1.0" encoding="iso-8859-1"?>
<!-- Generator: Adobe Illustrator 19.0.0, SVG Export Plug-In . SVG Version: 6.00 Build 0)  -->
<svg xmlns="http://www.w3.org/2000/svg" xmlns:xlink="http://www.w3.org/1999/xlink" version="1.1" id="Layer_1" x="0px" y="0px" viewBox="0 0 512 512" style="enable-background:new 0 0 512 512;" xml:space="preserve" width="512" height="512">
<g>
	<g>
		<g>
			<g>
				<path style="fill:#75CFF2;" d="M473.1,193.535H38.9c-16.949,0-30.689,13.74-30.689,30.689v249.587      c0,16.949,13.74,30.689,30.689,30.689H473.1c16.949,0,30.689-13.74,30.689-30.689V224.224      C503.788,207.275,490.049,193.535,473.1,193.535z M307.382,265.915H204.618c-10.264,0-18.585-8.321-18.585-18.585      c0-10.265,8.321-18.585,18.585-18.585h102.764c10.264,0,18.585,8.321,18.585,18.585      C325.967,257.595,317.646,265.915,307.382,265.915z"/>
				<g>
					<path style="fill:#53B4E4;" d="M473.1,193.535h-20.648V504.5H473.1c16.949,0,30.689-13.74,30.689-30.689V224.224       C503.788,207.275,490.049,193.535,473.1,193.535z"/>
				</g>
				<g>
					<path style="fill:#FF9C43;" d="M124.731,18.804l87.88,209.94h62.424L184.518,12.506c-1.269-3.032-4.235-5.006-7.523-5.006       h-44.742C126.428,7.5,122.482,13.431,124.731,18.804z"/>
					<path style="fill:#EF8229;" d="M327.481,12.506l-90.516,216.238h62.424l87.88-209.94c2.249-5.373-1.698-11.304-7.523-11.304       h-44.742C331.716,7.5,328.75,9.474,327.481,12.506z"/>
				</g>
			</g>
		</g>
		<g>
			<g>
				<g>
					<path style="fill:#EDEDED;" d="M174.211,456.446H64.238c-5.005,0-9.063-4.058-9.063-9.063V317.184       c0-5.005,4.058-9.063,9.063-9.063h109.973c5.005,0,9.063,4.058,9.063,9.063v130.199       C183.274,452.388,179.216,456.446,174.211,456.446z"/>
					<path style="fill:#D6D6D6;" d="M174.211,308.12h-42.577v148.325h42.577c5.005,0,9.063-4.058,9.063-9.063V317.184       C183.274,312.178,179.216,308.12,174.211,308.12z"/>
					<g>
						<circle style="fill:#345863;" cx="119.28" cy="368.257" r="26.546"/>
						<path style="fill:#345863;" d="M118.921,394.803c-24.986,0-45.241,20.255-45.241,45.24v16.402h90.481v-16.402        C164.161,415.058,143.907,394.803,118.921,394.803z"/>
					</g>
				</g>
			</g>
		</g>
	</g>
	<g>
		<g>
			<path d="M257.445,349.16c-0.109-0.438-0.219-0.874-0.219-1.093c0-3.5,5.141-5.906,8.968-5.906c2.406,0,4.265,0.766,4.812,2.844     l16.732,59.273l16.623-59.273c0.547-2.078,2.405-2.844,4.812-2.844c3.827,0,8.968,2.516,8.968,5.906     c0,0.328-0.109,0.655-0.219,1.093l-20.997,68.788c-0.984,3.28-5.031,4.812-9.187,4.812s-8.093-1.531-9.187-4.812L257.445,349.16z     "/>
			<path d="M333.452,346.536c0-3.063,3.5-4.375,7.108-4.375c3.5,0,7.108,1.313,7.108,4.375v71.084c0,2.952-3.608,4.483-7.108,4.483     c-3.608,0-7.108-1.531-7.108-4.483V346.536z"/>
			<path d="M368.558,346.536c0-2.297,2.078-4.375,5.358-4.375h21.981c13.889,0,24.825,6.671,24.825,24.606v0.656     c0,17.935-11.265,24.824-25.7,24.824h-12.248v25.372c0,2.952-3.608,4.483-7.108,4.483c-3.608,0-7.108-1.531-7.108-4.483V346.536z      M382.775,354.629v26.465h12.248c7.108,0,11.483-4.047,11.483-12.576v-1.313c0-8.53-4.375-12.576-11.483-12.576H382.775z"/>
		</g>
	</g>
	<g>
		<g>
			<path d="M441.445,300.62H244.706c-4.142,0-7.5,3.357-7.5,7.5s3.358,7.5,7.5,7.5h196.739c4.143,0,7.5-3.357,7.5-7.5     S445.588,300.62,441.445,300.62z"/>
		</g>
		<g>
			<path d="M441.445,442.924H244.706c-4.142,0-7.5,3.357-7.5,7.5s3.358,7.5,7.5,7.5h196.739c4.143,0,7.5-3.357,7.5-7.5     S445.588,442.924,441.445,442.924z"/>
		</g>
		<g>
			<path d="M174.211,300.62H64.238c-9.133,0-16.563,7.431-16.563,16.563v130.199c0,9.133,7.43,16.563,16.563,16.563h109.973     c9.133,0,16.563-7.431,16.563-16.563V317.184C190.774,308.051,183.344,300.62,174.211,300.62z M119.28,387.304     c-10.502,0-19.046-8.544-19.046-19.047c0-10.502,8.544-19.046,19.046-19.046c10.502,0,19.046,8.544,19.046,19.046     C138.326,378.76,129.782,387.304,119.28,387.304z M156.661,440.044v8.902H81.18v-8.902c0-20.811,16.93-37.741,37.741-37.741     C139.731,402.303,156.661,419.233,156.661,440.044z M175.774,447.383c0,0.862-0.701,1.563-1.563,1.563h-2.55v-8.902     c0-20.54-11.802-38.375-28.981-47.08c6.552-6.209,10.645-14.989,10.645-24.707c0-18.773-15.273-34.046-34.046-34.046     c-18.773,0-34.046,15.272-34.046,34.046c0,9.596,3.991,18.277,10.399,24.471c-17.434,8.616-29.452,26.588-29.452,47.316v8.902     h-1.942c-0.862,0-1.563-0.701-1.563-1.563V317.184c0-0.862,0.701-1.563,1.563-1.563h109.973c0.862,0,1.563,0.701,1.563,1.563     V447.383z"/>
		</g>
		<g>
			<path d="M473.099,186.035H343.968c-4.143,0-7.5,3.357-7.5,7.5s3.357,7.5,7.5,7.5h129.132c12.787,0,23.189,10.402,23.189,23.188     v249.588c0,12.786-10.402,23.188-23.189,23.188H38.9c-12.787,0-23.189-10.402-23.189-23.188V224.224     c0-12.786,10.402-23.188,23.189-23.188h128.68c4.142,0,7.5-3.357,7.5-7.5s-3.358-7.5-7.5-7.5H38.9     c-21.058,0-38.189,17.131-38.189,38.188v249.588C0.711,494.869,17.843,512,38.9,512h434.199     c21.058,0,38.189-17.131,38.189-38.188V224.224C511.289,203.166,494.157,186.035,473.099,186.035z"/>
		</g>
		<g>
			<path d="M201.423,221.44c-12.882,1.58-22.89,12.588-22.89,25.89c0,14.384,11.702,26.085,26.085,26.085h102.764     c14.384,0,26.086-11.701,26.086-26.085c0-13.302-10.009-24.31-22.892-25.89l83.61-199.74c2.028-4.844,1.503-10.346-1.406-14.718     S384.998,0,379.746,0h-44.742c-6.328,0-11.996,3.771-14.44,9.609c0,0,0,0,0,0.001l-64.564,154.239L191.437,9.61     C188.993,3.772,183.325,0,176.996,0h-44.742c-5.251,0-10.124,2.61-13.033,6.981c-2.909,4.372-3.436,9.874-1.408,14.718     L201.423,221.44z M318.468,247.33c0,6.112-4.973,11.085-11.086,11.085H204.618c-6.112,0-11.085-4.973-11.085-11.085     s4.973-11.085,11.085-11.085h102.764C313.495,236.245,318.468,241.218,318.468,247.33z M334.399,15.401     c0.103-0.244,0.34-0.401,0.604-0.401h44.742c0.105,0,0.352,0,0.546,0.292s0.099,0.519,0.059,0.616l-85.959,205.337h-46.154     L334.399,15.401z M131.708,15.292C131.903,15,132.149,15,132.254,15h44.742c0.265,0,0.502,0.157,0.604,0.401l70.269,167.871     l-15.895,37.973h-14.372L131.649,15.908C131.609,15.811,131.513,15.584,131.708,15.292z"/>
		</g>
	</g>
</g>















</svg>
