<svg xmlns="http://www.w3.org/2000/svg" viewBox="0 0 59 59">
  <defs>
    <style>
      .cls-1 {
        fill: #fad87c;
      }

      .cls-1, .cls-2, .cls-3 {
        stroke: #707070;
      }

      .cls-2 {
        fill: #febe40;
      }

      .cls-3 {
        fill: #fc9642;
      }
    </style>
  </defs>
  <g id="lemon" transform="translate(0.5 0.5)">
    <circle id="Ellipse_11" data-name="Ellipse 11" class="cls-1" cx="29" cy="29" r="29"/>
    <path id="Path_26" data-name="Path 26" class="cls-2" d="M286.1,38.3,272.249,52.142a.467.467,0,0,1-.8-.33V32.23a.468.468,0,0,1,.511-.465,25.253,25.253,0,0,1,14.1,5.84A.468.468,0,0,1,286.1,38.3Z" transform="translate(-240.702 -28.165)"/>
    <path id="Path_27" data-name="Path 27" class="cls-3" d="M286.1,38.3l-2.162,2.162a21.854,21.854,0,0,0-12.481-5.171V32.231a.468.468,0,0,1,.511-.464,25.254,25.254,0,0,1,14.1,5.84A.469.469,0,0,1,286.1,38.3Z" transform="translate(-240.702 -28.166)"/>
    <path id="Path_28" data-name="Path 28" class="cls-2" d="M124.343,31.765a.468.468,0,0,1,.511.465V51.812a.467.467,0,0,1-.8.33L110.21,38.3a.468.468,0,0,1,.032-.69A25.254,25.254,0,0,1,124.343,31.765Z" transform="translate(-97.604 -28.165)"/>
    <path id="Path_29" data-name="Path 29" class="cls-3" d="M124.854,32.231v3.058a21.854,21.854,0,0,0-12.481,5.171L110.211,38.3a.469.469,0,0,1,.031-.691,25.254,25.254,0,0,1,14.1-5.84A.468.468,0,0,1,124.854,32.231Z" transform="translate(-97.605 -28.166)"/>
    <path id="Path_30" data-name="Path 30" class="cls-2" d="M52.142,124.058a.467.467,0,0,1-.33.8H32.23a.468.468,0,0,1-.465-.511,25.253,25.253,0,0,1,5.84-14.1.468.468,0,0,1,.69-.032Z" transform="translate(-28.165 -97.605)"/>
    <path id="Path_31" data-name="Path 31" class="cls-3" d="M40.459,112.373a21.854,21.854,0,0,0-5.171,12.481H32.231a.468.468,0,0,1-.464-.511,25.254,25.254,0,0,1,5.84-14.1.469.469,0,0,1,.691-.031Z" transform="translate(-28.166 -97.604)"/>
    <path id="Path_32" data-name="Path 32" class="cls-2" d="M51.812,271.453a.467.467,0,0,1,.33.8L38.3,286.1a.468.468,0,0,1-.69-.032,25.253,25.253,0,0,1-5.84-14.1.468.468,0,0,1,.465-.511Z" transform="translate(-28.165 -240.702)"/>
    <path id="Path_33" data-name="Path 33" class="cls-3" d="M40.459,283.934,38.3,286.1a.469.469,0,0,1-.691-.031,25.253,25.253,0,0,1-5.84-14.1.468.468,0,0,1,.464-.511h3.058A21.854,21.854,0,0,0,40.459,283.934Z" transform="translate(-28.166 -240.702)"/>
    <path id="Path_34" data-name="Path 34" class="cls-2" d="M124.854,299.59v19.582a.468.468,0,0,1-.511.465,25.253,25.253,0,0,1-14.1-5.84.468.468,0,0,1-.032-.69l13.847-13.847A.467.467,0,0,1,124.854,299.59Z" transform="translate(-97.604 -265.237)"/>
    <path id="Path_35" data-name="Path 35" class="cls-3" d="M124.854,408.652v3.058a.468.468,0,0,1-.511.464,25.255,25.255,0,0,1-14.1-5.84.469.469,0,0,1-.031-.691l2.162-2.162A21.854,21.854,0,0,0,124.854,408.652Z" transform="translate(-97.604 -357.774)"/>
    <path id="Path_36" data-name="Path 36" class="cls-2" d="M286.065,313.8a25.253,25.253,0,0,1-14.1,5.84.468.468,0,0,1-.511-.465V299.59a.467.467,0,0,1,.8-.33L286.1,313.107A.468.468,0,0,1,286.065,313.8Z" transform="translate(-240.702 -265.237)"/>
    <path id="Path_37" data-name="Path 37" class="cls-3" d="M286.065,406.334a25.253,25.253,0,0,1-14.1,5.84.468.468,0,0,1-.511-.464v-3.058a21.854,21.854,0,0,0,12.481-5.171l2.162,2.162A.469.469,0,0,1,286.065,406.334Z" transform="translate(-240.702 -357.774)"/>
    <path id="Path_38" data-name="Path 38" class="cls-2" d="M319.637,271.963a25.253,25.253,0,0,1-5.84,14.1.468.468,0,0,1-.69.032L299.26,272.249a.467.467,0,0,1,.33-.8h19.582A.468.468,0,0,1,319.637,271.963Z" transform="translate(-265.237 -240.702)"/>
    <path id="Path_39" data-name="Path 39" class="cls-3" d="M412.174,271.964a25.254,25.254,0,0,1-5.84,14.1.469.469,0,0,1-.691.031l-2.162-2.162a21.854,21.854,0,0,0,5.171-12.481h3.058A.468.468,0,0,1,412.174,271.964Z" transform="translate(-357.774 -240.702)"/>
    <path id="Path_40" data-name="Path 40" class="cls-2" d="M319.172,124.853H299.59a.467.467,0,0,1-.33-.8l13.847-13.847a.468.468,0,0,1,.69.032,25.253,25.253,0,0,1,5.84,14.1A.468.468,0,0,1,319.172,124.853Z" transform="translate(-265.237 -97.603)"/>
    <path id="Path_41" data-name="Path 41" class="cls-3" d="M412.174,124.343a.468.468,0,0,1-.464.511h-3.058a21.854,21.854,0,0,0-5.171-12.481l2.162-2.162a.469.469,0,0,1,.691.031A25.254,25.254,0,0,1,412.174,124.343Z" transform="translate(-357.774 -97.605)"/>
  </g>
</svg>
